<svg xmlns="http://www.w3.org/2000/svg" xmlns:xlink="http://www.w3.org/1999/xlink" width="50" zoomAndPan="magnify" viewBox="0 0 37.5 37.499999" height="50" preserveAspectRatio="xMidYMid meet" version="1.0"><defs><clipPath id="id1"><path d="M 18.078125 30.171875 L 23.835938 30.171875 L 23.835938 36.53125 L 18.078125 36.53125 Z M 18.078125 30.171875 " clip-rule="nonzero"/></clipPath><clipPath id="id2"><path d="M 16 1.28125 L 22 1.28125 L 22 7 L 16 7 Z M 16 1.28125 " clip-rule="nonzero"/></clipPath><clipPath id="id3"><path d="M 27 8 L 29.648438 8 L 29.648438 11 L 27 11 Z M 27 8 " clip-rule="nonzero"/></clipPath><clipPath id="id4"><path d="M 22 1.28125 L 27 1.28125 L 27 5 L 22 5 Z M 22 1.28125 " clip-rule="nonzero"/></clipPath><clipPath id="id5"><path d="M 28 10 L 29.648438 10 L 29.648438 13 L 28 13 Z M 28 10 " clip-rule="nonzero"/></clipPath><clipPath id="id6"><path d="M 20.757812 12.378906 L 29.648438 12.378906 L 29.648438 27.675781 L 20.757812 27.675781 Z M 20.757812 12.378906 " clip-rule="nonzero"/></clipPath></defs><path fill="#ffffff" d="M 26.648438 20.601562 C 25.410156 20.378906 24.554688 21.449219 24.472656 22.71875 C 24.429688 23.429688 24.398438 23.425781 24.0625 23.871094 C 23.632812 24.441406 23.464844 25.179688 23.894531 25.652344 C 24.082031 25.863281 24.226562 25.960938 24.261719 25.59375 C 24.324219 24.945312 23.964844 24.613281 24.488281 24.140625 C 24.808594 23.851562 25.636719 23.617188 25.839844 23.3125 C 26.125 22.882812 26.019531 22.253906 26.480469 21.769531 C 27.035156 21.191406 27.953125 21.722656 28.292969 21.816406 C 28.441406 20.980469 27.335938 20.722656 26.648438 20.601562 " fill-opacity="1" fill-rule="evenodd"/><path fill="#ffffff" d="M 27 22.117188 C 26.820312 22.074219 26.664062 22.09375 26.5625 22.324219 C 26.476562 22.507812 26.410156 22.71875 26.351562 22.949219 C 26.300781 23.15625 26.308594 23.296875 26.570312 23.304688 C 26.941406 23.316406 27.128906 23.355469 27.417969 23.402344 C 27.605469 23.429688 27.742188 23.433594 27.851562 23.261719 C 27.996094 23.035156 28.1875 22.707031 28.03125 22.550781 C 27.84375 22.359375 27.28125 22.183594 27 22.117188 " fill-opacity="1" fill-rule="evenodd"/><path fill="#ffffff" d="M 27.699219 24.023438 C 27.386719 23.582031 26.332031 23.71875 26.070312 24.042969 C 25.3125 24.984375 26.175781 25.726562 26.726562 26.816406 C 26.925781 27.214844 27.042969 27.632812 27.117188 28.0625 C 27.15625 28.300781 27.246094 28.164062 27.28125 28.035156 C 27.800781 26.308594 26.164062 25.519531 26.324219 24.632812 C 26.363281 24.410156 26.640625 24.457031 26.644531 24.621094 C 26.644531 24.746094 26.65625 24.96875 27.019531 25.476562 C 27.3125 25.886719 27.328125 25.933594 27.53125 26.398438 C 27.566406 26.484375 27.65625 26.496094 27.734375 26.464844 C 28.488281 26.15625 28.324219 25.226562 27.964844 24.511719 C 27.871094 24.324219 27.792969 24.15625 27.699219 24.023438 " fill-opacity="1" fill-rule="evenodd"/><path fill="#ffffff" d="M 26.164062 30.152344 C 26.660156 29.023438 26.875 27.863281 26.214844 26.722656 C 26.054688 26.441406 25.859375 26.101562 25.621094 25.65625 C 25.261719 24.980469 25.339844 24.585938 25.511719 24.226562 C 25.613281 24.023438 25.535156 23.964844 25.335938 24.027344 C 24.851562 24.171875 24.597656 24.296875 24.585938 24.8125 C 24.582031 25.113281 24.652344 25.535156 24.609375 25.839844 C 24.546875 26.304688 24.078125 26.40625 23.789062 26.144531 C 23.691406 26.054688 23.597656 25.949219 23.527344 25.847656 C 23.414062 25.6875 23.351562 25.683594 23.234375 25.835938 L 23.101562 26.015625 C 22.972656 26.183594 23 26.472656 23.089844 26.65625 C 23.269531 27.019531 23.375 27.238281 23.523438 27.847656 C 23.667969 28.425781 23.640625 28.875 23.707031 29.351562 C 23.820312 30.117188 24.183594 30.78125 24.203125 31.609375 C 24.214844 32.199219 23.996094 32.765625 23.765625 33.300781 C 23.707031 33.4375 23.835938 33.347656 23.875 33.320312 C 24.613281 32.828125 25.328125 31.796875 25.578125 30.996094 C 25.960938 29.78125 24.828125 29 24.660156 28.328125 C 24.566406 27.941406 24.964844 27.789062 25.113281 28.214844 C 25.171875 28.390625 25.257812 28.640625 25.496094 29.035156 C 25.691406 29.351562 25.902344 29.703125 25.996094 30.160156 C 26.039062 30.367188 26.101562 30.296875 26.164062 30.152344 " fill-opacity="1" fill-rule="evenodd"/><path fill="#ffffff" d="M 27.835938 28.550781 C 26.488281 28.878906 27.007812 29.5625 26.15625 31.035156 C 25.898438 31.480469 25.65625 31.996094 25.359375 32.390625 C 25.0625 32.777344 24.710938 33.042969 24.328125 33.378906 C 23.359375 34.238281 23.722656 35.007812 24.117188 35.277344 C 24.199219 35.332031 24.214844 35.292969 24.25 35.214844 C 25.078125 33.296875 25.296875 34.234375 26.617188 33.492188 C 27.066406 33.238281 27.007812 33.074219 26.992188 32.4375 C 26.964844 31.375 27.546875 31.007812 27.992188 30.503906 C 28.613281 29.796875 28.726562 29.628906 28.503906 28.761719 C 28.429688 28.484375 28.0625 28.492188 27.835938 28.550781 " fill-opacity="1" fill-rule="evenodd"/><path fill="#ffffff" d="M 27.683594 28.078125 C 27.660156 28.234375 27.707031 28.25 27.855469 28.203125 C 28.96875 27.839844 28.863281 27.082031 28.574219 26.636719 C 28.476562 26.488281 28.304688 26.464844 28.167969 26.582031 C 28.089844 26.648438 28.015625 26.703125 27.9375 26.773438 C 27.800781 26.890625 27.703125 27.089844 27.722656 27.273438 C 27.746094 27.515625 27.722656 27.828125 27.683594 28.078125 " fill-opacity="1" fill-rule="evenodd"/><g clip-path="url(#id1)"><path fill="#ffffff" d="M 23.628906 32.398438 C 23.859375 31.800781 23.867188 31.152344 23.542969 30.40625 C 23.417969 30.125 23.34375 30.226562 23.210938 30.441406 C 22.570312 31.5 21.679688 32.152344 19.613281 32.773438 C 18.078125 33.230469 17.898438 34.863281 18.480469 35.859375 C 18.660156 36.167969 18.789062 36.28125 18.972656 36.410156 C 19.164062 36.542969 19.261719 36.628906 19.273438 36.347656 C 19.308594 35.496094 19.625 35.023438 20.207031 34.652344 C 21.566406 33.78125 22.886719 34.316406 23.628906 32.398438 " fill-opacity="1" fill-rule="evenodd"/></g><path fill="#ffffff" d="M 21.851562 31.332031 C 22.257812 31.039062 22.621094 30.664062 23.007812 30.027344 C 23.566406 29.113281 23.261719 27.730469 22.804688 26.867188 C 22.613281 26.507812 22.210938 26.679688 22 26.929688 C 21.699219 27.285156 21.542969 27.542969 21.476562 27.75 C 21.367188 28.082031 21.097656 28.222656 20.886719 27.90625 C 20.730469 27.671875 20.628906 27.386719 20.558594 27.128906 C 20.433594 26.679688 20.257812 26.8125 20.136719 27.167969 C 20.078125 27.347656 20.023438 27.546875 19.953125 27.753906 C 19.757812 28.316406 19.941406 28.714844 19.816406 29.300781 C 19.589844 30.347656 18.789062 30.394531 18.050781 30.867188 C 16.71875 31.722656 17.558594 32.859375 15.5 33.230469 C 15.261719 33.269531 15.042969 33.308594 14.792969 33.347656 C 14.527344 33.40625 14.011719 33.527344 14.597656 33.761719 C 14.949219 33.898438 15.304688 34.039062 15.832031 34.0625 C 18.242188 34.179688 18.066406 33.09375 18.9375 32.640625 C 19.914062 32.132812 20.558594 32.273438 21.851562 31.332031 " fill-opacity="1" fill-rule="evenodd"/><path fill="#ffffff" d="M 21.335938 24.496094 C 23.039062 23.160156 22.15625 22.46875 22.019531 21.503906 C 21.96875 21.128906 22.054688 20.835938 22.152344 20.550781 C 22.246094 20.28125 22.246094 20.042969 22.042969 19.835938 C 21.789062 19.585938 21.507812 19.367188 21.25 19.046875 C 21.226562 19.015625 21.203125 18.980469 21.179688 18.949219 C 21.082031 18.816406 21.003906 18.773438 20.9375 18.78125 C 20.828125 18.792969 20.734375 18.933594 20.625 19.0625 C 20.46875 19.238281 20.28125 19.347656 19.917969 19.589844 C 19.621094 19.789062 19.292969 19.992188 19.152344 20.222656 C 18.5 21.257812 19.214844 22.253906 19.273438 23.132812 C 19.292969 23.65625 19.113281 24.050781 18.90625 24.445312 C 18.773438 24.691406 18.636719 24.933594 18.5625 25.222656 C 18.355469 26.03125 18.957031 26.625 18.917969 27.484375 C 18.902344 27.765625 18.84375 28.101562 18.765625 28.503906 C 18.707031 28.78125 18.84375 28.808594 19.050781 28.609375 C 19.480469 28.195312 19.636719 27.457031 19.886719 26.804688 C 20.007812 26.492188 20.164062 26.273438 20.289062 25.984375 C 20.578125 25.296875 20.734375 24.96875 21.335938 24.496094 " fill-opacity="1" fill-rule="evenodd"/><path fill="#ffffff" d="M 20.414062 17.765625 C 20.808594 17.398438 20.726562 16.875 20.785156 16.070312 C 20.933594 14.066406 22.859375 14.398438 21.066406 11.175781 C 20.921875 10.917969 20.804688 10.726562 20.710938 10.53125 C 20.546875 10.183594 20.515625 10.140625 20.101562 10.203125 C 19.789062 10.25 19.460938 10.265625 19.464844 10.59375 L 19.464844 11.171875 C 19.464844 11.484375 19.523438 11.488281 19.738281 11.664062 C 20.117188 11.972656 19.882812 12.410156 19.519531 12.640625 C 19.246094 12.816406 19.175781 12.816406 19.140625 13.195312 C 19.09375 13.699219 18.976562 14.082031 18.875 14.410156 C 18.632812 15.203125 18.816406 15.621094 19.300781 16.246094 C 19.585938 16.613281 19.980469 17.082031 20.085938 17.5625 C 20.132812 17.761719 20.121094 18.035156 20.414062 17.765625 " fill-opacity="1" fill-rule="evenodd"/><path fill="#ffffff" d="M 19.578125 18.0625 C 19.710938 17.496094 19.433594 16.847656 19.039062 16.445312 C 18.945312 16.347656 18.8125 16.324219 18.808594 16.496094 C 18.78125 17.425781 18.765625 18.082031 18.332031 18.828125 C 18.039062 19.328125 17.324219 19.878906 17.050781 20.421875 C 17.011719 20.5 17.035156 20.546875 17.121094 20.511719 C 17.960938 20.152344 18.082031 20.351562 19.128906 19.609375 C 19.402344 19.417969 19.621094 19.304688 19.796875 19.199219 C 19.972656 19.09375 20.6875 18.464844 20.132812 18.527344 C 19.378906 18.617188 19.488281 18.445312 19.578125 18.0625 " fill-opacity="1" fill-rule="evenodd"/><path fill="#ffffff" d="M 17.722656 19.027344 C 18.707031 18.027344 18.421875 16.585938 18.34375 15.574219 C 18.289062 14.859375 18.640625 14.183594 18.714844 13.59375 C 18.769531 13.152344 18.488281 13.105469 18.128906 13.15625 C 17.488281 13.246094 16.859375 13.386719 16.25 13.597656 C 15.917969 13.714844 15.90625 13.890625 16.003906 14.21875 C 16.199219 14.875 16.226562 15.542969 15.941406 16.09375 C 15.636719 16.6875 15.128906 16.976562 15.023438 17.691406 C 14.996094 17.882812 15.085938 17.9375 15.160156 17.839844 C 15.625 17.273438 16.207031 16.839844 16.648438 16.257812 C 17.164062 15.585938 17.042969 15.285156 17.097656 15.050781 C 17.140625 14.839844 17.371094 14.785156 17.464844 14.957031 C 17.671875 15.332031 17.449219 16.132812 16.964844 16.644531 C 15.433594 18.261719 14.863281 18.179688 15.277344 20.128906 C 15.386719 20.664062 15.636719 21.246094 15.957031 21.585938 C 16.179688 21.820312 16.273438 21.890625 16.355469 21.53125 C 16.457031 21.082031 16.292969 20.472656 17.722656 19.027344 " fill-opacity="1" fill-rule="evenodd"/><path fill="#ffffff" d="M 15.230469 16.449219 C 15.597656 15.882812 15.792969 15.617188 15.636719 14.667969 C 15.605469 14.492188 15.566406 14.328125 15.507812 14.199219 C 15.375 13.898438 15.273438 13.933594 15.015625 14 L 14.699219 14.113281 C 14.550781 14.167969 14.476562 14.253906 14.496094 14.417969 C 14.671875 15.746094 15.09375 16.59375 13.59375 17.871094 C 13.21875 18.1875 10.984375 18.988281 11.378906 20.566406 C 11.519531 21.136719 12.039062 21.878906 12.574219 22.1875 C 12.765625 22.300781 12.914062 22.242188 12.917969 22.015625 C 12.941406 20.996094 12.824219 20.695312 12.707031 20.453125 C 12.488281 20.007812 12.882812 19.949219 13.042969 20.246094 C 13.121094 20.394531 13.160156 20.574219 13.199219 20.753906 C 13.429688 21.875 13.234375 22.417969 13.003906 23.5 C 12.761719 24.652344 13.222656 26.074219 14.046875 26.433594 C 14.230469 26.515625 14.28125 26.402344 14.234375 26.234375 C 14.042969 25.5625 13.65625 25.035156 14.589844 23.410156 C 15.386719 22.019531 14.933594 21.214844 14.714844 19.914062 C 14.59375 19.164062 14.488281 17.867188 14.761719 17.222656 C 14.875 16.960938 15.039062 16.742188 15.230469 16.449219 " fill-opacity="1" fill-rule="evenodd"/><path fill="#ffffff" d="M 12.933594 17.824219 C 14.410156 17.191406 14.390625 16.007812 14.214844 14.851562 C 14.191406 14.722656 14.140625 14.566406 14.027344 14.507812 C 13.90625 14.445312 13.71875 14.496094 13.585938 14.546875 C 12.90625 14.796875 11.808594 15.257812 11.179688 15.5625 C 10.867188 15.710938 10.960938 15.972656 11.117188 16.234375 C 11.503906 16.882812 11.5625 17.667969 11.589844 18.332031 C 11.597656 18.566406 11.695312 18.550781 11.847656 18.398438 C 12.042969 18.203125 12.261719 17.90625 12.4375 17.582031 C 12.667969 17.164062 12.75 16.847656 12.804688 16.542969 C 12.855469 16.257812 13.125 16.386719 13.144531 16.566406 C 13.191406 16.945312 12.941406 17.402344 12.785156 17.71875 C 12.699219 17.886719 12.78125 17.886719 12.933594 17.824219 " fill-opacity="1" fill-rule="evenodd"/><path fill="#ffffff" d="M 11.070312 15.1875 C 11.945312 14.867188 13.398438 14.183594 13.851562 14.023438 C 14.296875 13.867188 14.773438 13.71875 15.195312 13.5625 C 15.328125 13.511719 15.707031 13.234375 15.320312 13.175781 C 14.472656 13.046875 13.199219 12.808594 12.414062 12.320312 C 12.128906 12.144531 12.066406 11.976562 12.359375 11.753906 C 13.085938 11.210938 13.960938 10.878906 14.800781 10.707031 C 16.242188 10.410156 17.449219 10.550781 18.746094 11.105469 C 18.9375 11.1875 19.089844 11.222656 19.082031 10.972656 C 19.078125 10.847656 19.070312 10.71875 19.0625 10.558594 C 19.042969 10.300781 18.847656 10.273438 18.621094 10.25 C 17.332031 10.128906 16.394531 9.996094 15.601562 9.632812 C 15.058594 9.382812 15.152344 8.984375 15.53125 8.753906 C 16.304688 8.285156 17.972656 7.867188 18.878906 7.773438 C 20.183594 7.640625 22.140625 7.671875 23.242188 8.355469 C 23.554688 8.546875 23.472656 8.773438 23.28125 8.917969 C 23.089844 9.058594 22.890625 9.175781 22.632812 9.289062 C 22.351562 9.417969 22.382812 9.734375 22.527344 9.957031 C 22.816406 10.394531 23.277344 10.761719 23.601562 11.496094 C 24.652344 10.292969 23.101562 9.359375 24.472656 8 C 24.816406 7.660156 25.328125 7.136719 26.097656 7.351562 C 26.71875 7.523438 26.875 7.769531 27.105469 8.175781 C 27.214844 8.367188 27.363281 8.421875 27.574219 8.371094 C 27.847656 8.308594 27.976562 8.289062 28.324219 8.3125 C 28.515625 8.324219 28.589844 8.222656 28.589844 8.042969 C 28.597656 7.449219 28.390625 7.054688 27.894531 6.730469 C 27.503906 6.476562 27.273438 6.476562 26.835938 6.609375 C 25.84375 6.902344 23.730469 7.535156 22.078125 7.101562 C 19.773438 6.5 19.574219 6.074219 20.835938 5.519531 C 22.046875 4.984375 23.464844 4.675781 24.785156 4.730469 C 25.621094 4.761719 25.960938 4.644531 26.597656 4.117188 C 26.933594 3.832031 27.265625 3.652344 27.871094 3.332031 C 28.117188 3.203125 28.152344 3.039062 28.011719 2.796875 C 27.832031 2.488281 27.496094 2.234375 27.152344 2.089844 C 26.902344 1.980469 26.714844 2.039062 26.527344 2.226562 C 26.242188 2.511719 25.921875 2.820312 25.585938 3.101562 C 24.730469 3.808594 23.355469 4.429688 22.273438 4.492188 C 21.933594 4.511719 21.753906 4.378906 21.875 4.023438 C 21.988281 3.691406 22.265625 3.414062 22.449219 3.207031 C 22.511719 3.140625 22.742188 2.929688 22.96875 2.726562 C 23.085938 2.625 23.355469 2.328125 22.964844 2.421875 L 21.941406 2.664062 C 21.652344 2.734375 21.476562 2.890625 21.394531 3.171875 C 20.832031 5.078125 19.144531 6.726562 16.6875 7.324219 C 16.347656 7.40625 16.234375 7.371094 16.292969 6.964844 C 16.460938 5.828125 16.761719 4.984375 17.140625 4.269531 C 17.285156 3.992188 17.011719 3.957031 16.8125 4.007812 C 16.605469 4.0625 16.394531 4.136719 16.210938 4.21875 C 15.914062 4.34375 15.789062 4.585938 15.792969 4.898438 C 15.804688 6.945312 15.007812 8.941406 13.253906 10.050781 C 12.964844 10.234375 12.6875 10.246094 12.636719 9.855469 C 12.441406 8.296875 12.835938 7.234375 12.941406 6.429688 C 12.984375 6.113281 12.847656 6.015625 12.515625 6.101562 L 11.421875 6.476562 C 11.140625 6.574219 11.101562 6.714844 11.179688 6.976562 C 11.601562 8.441406 11.699219 11.269531 11.03125 12.492188 C 10.890625 12.753906 10.765625 12.789062 10.523438 12.613281 C 10.304688 12.457031 10.183594 12.503906 10.054688 12.730469 C 9.84375 13.09375 9.605469 13.613281 9.628906 14.046875 C 9.652344 14.449219 9.902344 14.851562 10.148438 15.113281 C 10.398438 15.375 10.769531 15.300781 11.070312 15.1875 " fill-opacity="1" fill-rule="evenodd"/><path fill="#ffffff" d="M 10.644531 16.195312 C 10.207031 15.707031 9.777344 15.347656 9.523438 14.847656 C 9.4375 14.675781 9.242188 14.601562 9.019531 14.707031 C 8.734375 14.839844 8.425781 14.984375 8.222656 15.265625 C 7.90625 15.699219 8.019531 16.261719 8.609375 16.332031 C 8.917969 16.371094 9.289062 16.335938 9.5625 16.324219 C 9.757812 16.316406 9.917969 16.445312 9.738281 16.597656 C 9.5 16.800781 9.039062 16.640625 8.804688 17.125 C 8.585938 17.578125 8.703125 17.816406 8.84375 18.046875 C 8.960938 18.238281 8.992188 18.292969 9.1875 18.171875 C 9.476562 17.996094 9.730469 17.816406 9.894531 17.746094 C 10.214844 17.601562 10.339844 17.851562 10.144531 18.015625 C 9.949219 18.183594 9.574219 18.28125 8.929688 18.765625 C 8.679688 18.953125 8.222656 19.363281 8.101562 19.796875 C 8.003906 20.148438 8.125 20.230469 8.460938 20.078125 C 8.796875 19.929688 9.300781 19.683594 9.75 19.515625 C 10.703125 19.15625 11.300781 18.824219 11.164062 17.6875 C 11.09375 17.113281 10.941406 16.527344 10.644531 16.195312 " fill-opacity="1" fill-rule="evenodd"/><path fill="#ffffff" d="M 13.109375 9.667969 C 15.726562 7.933594 15.535156 4.789062 15.179688 3.261719 C 15.148438 3.125 15.089844 3.175781 15.003906 3.246094 C 13.574219 4.449219 12.894531 8.191406 12.9375 9.601562 C 12.941406 9.707031 13.019531 9.726562 13.109375 9.667969 " fill-opacity="1" fill-rule="evenodd"/><g clip-path="url(#id2)"><path fill="#ffffff" d="M 21.125 1.40625 C 18.71875 2.039062 16.910156 4.449219 16.691406 6.925781 C 19.308594 6.203125 21.179688 4.367188 21.125 1.40625 " fill-opacity="1" fill-rule="evenodd"/></g><path fill="#ffffff" d="M 19.320312 8.078125 C 18.785156 8.105469 16.847656 8.4375 16.128906 8.898438 C 15.882812 9.058594 15.851562 9.238281 16.144531 9.363281 C 16.921875 9.695312 18.792969 9.78125 19.300781 9.773438 C 20.628906 9.746094 22.015625 9.417969 22.675781 8.699219 C 22.183594 8.1875 20.289062 8.03125 19.320312 8.078125 " fill-opacity="1" fill-rule="evenodd"/><path fill="#ffffff" d="M 19.113281 11.714844 C 17.386719 10.625 14.140625 10.636719 12.738281 12.03125 C 14.160156 13.007812 17.441406 13.289062 19.097656 12.28125 C 19.484375 12.046875 19.476562 11.941406 19.113281 11.714844 " fill-opacity="1" fill-rule="evenodd"/><path fill="#ffffff" d="M 10.78125 12.199219 C 11.351562 10.761719 11.484375 7.550781 10.199219 6.117188 C 9.527344 7.242188 9.859375 11.492188 10.78125 12.199219 " fill-opacity="1" fill-rule="evenodd"/><path fill="#ffffff" d="M 20.988281 10.296875 C 21.484375 11.664062 22.539062 12.058594 22.015625 14.140625 C 22.628906 13.980469 24.378906 12.578125 22.660156 10.734375 C 22.414062 10.472656 22.261719 10.246094 22.082031 9.890625 C 21.996094 9.71875 21.765625 9.671875 21.585938 9.726562 L 21.171875 9.859375 C 20.9375 9.933594 20.90625 10.070312 20.988281 10.296875 " fill-opacity="1" fill-rule="evenodd"/><path fill="#ffffff" d="M 25.953125 10.640625 C 25.949219 10.949219 25.988281 11.3125 25.902344 11.625 C 25.851562 11.8125 25.855469 11.996094 26.058594 12.03125 C 26.582031 12.121094 26.980469 12.203125 27.4375 12.382812 C 27.6875 12.480469 27.902344 12.589844 28.148438 12.695312 C 28.296875 12.757812 28.421875 12.761719 28.375 12.554688 C 28.324219 12.339844 28.242188 12.09375 28.136719 11.878906 C 28.023438 11.644531 27.796875 11.472656 27.566406 11.328125 C 26.957031 10.953125 26.890625 10.886719 26.375 10.386719 C 26.171875 10.191406 25.957031 10.265625 25.953125 10.640625 " fill-opacity="1" fill-rule="evenodd"/><g clip-path="url(#id3)"><path fill="#ffffff" d="M 27.472656 9.113281 L 27.816406 10.425781 C 27.851562 10.566406 28.039062 10.675781 28.214844 10.4375 C 28.371094 10.21875 28.585938 10.054688 28.929688 10.011719 C 29.210938 9.976562 29.234375 9.828125 29.15625 9.59375 C 28.828125 8.601562 28.148438 8.6875 27.65625 8.796875 C 27.507812 8.832031 27.433594 8.96875 27.472656 9.113281 " fill-opacity="1" fill-rule="evenodd"/></g><path fill="#ffffff" d="M 27.277344 10.195312 C 27.128906 9.527344 26.914062 8.5 26.75 8.242188 C 26.273438 7.488281 25.484375 7.53125 24.890625 8.097656 C 24.28125 8.679688 24.089844 9.011719 24.324219 10.128906 C 24.527344 11.113281 23.992188 11.386719 23.847656 12.140625 C 23.824219 12.253906 23.910156 12.40625 24.027344 12.386719 C 25.871094 12.097656 25.394531 11.246094 25.582031 10.347656 C 25.722656 9.679688 26.179688 9.585938 26.675781 10 C 26.832031 10.128906 26.976562 10.285156 27.132812 10.421875 C 27.382812 10.640625 27.300781 10.3125 27.277344 10.195312 " fill-opacity="1" fill-rule="evenodd"/><path fill="#ffffff" d="M 20.570312 6.109375 C 21.628906 7.105469 25.714844 6.886719 26.625 6.027344 C 25.132812 4.460938 21.816406 5.25 20.570312 6.109375 " fill-opacity="1" fill-rule="evenodd"/><path fill="#ffffff" d="M 26.820312 5.523438 C 27.285156 5.789062 27.644531 5.988281 27.992188 6.238281 C 28.324219 6.476562 28.492188 6.402344 28.492188 6.003906 C 28.5 5.273438 28.53125 4.683594 28.726562 3.820312 C 28.808594 3.460938 28.472656 3.460938 28.226562 3.566406 C 27.632812 3.8125 27.027344 4.257812 26.601562 4.648438 C 26.261719 4.964844 26.480469 5.328125 26.820312 5.523438 " fill-opacity="1" fill-rule="evenodd"/><g clip-path="url(#id4)"><path fill="#ffffff" d="M 22.238281 4.113281 C 22.859375 4.183594 24.484375 3.453125 24.898438 3.160156 C 25.445312 2.78125 26.527344 1.929688 26.746094 1.28125 C 25.828125 1.324219 25.289062 1.550781 24.53125 2.015625 C 23.894531 2.410156 22.425781 3.539062 22.238281 4.113281 " fill-opacity="1" fill-rule="evenodd"/></g><g clip-path="url(#id5)"><path fill="#ffffff" d="M 29.308594 10.976562 C 29.238281 10.550781 28.695312 10.449219 28.585938 10.917969 C 28.480469 11.375 28.703125 12.058594 28.839844 12.566406 C 28.859375 12.640625 28.917969 12.675781 28.957031 12.605469 C 29.175781 12.1875 29.394531 11.496094 29.308594 10.976562 " fill-opacity="1" fill-rule="evenodd"/></g><g clip-path="url(#id6)"><path fill="#ffffff" d="M 26.234375 15.328125 C 25.40625 15.011719 24.507812 15.230469 24.003906 15.414062 C 23.84375 15.472656 23.613281 15.382812 23.765625 15.183594 C 24.152344 14.683594 25.566406 14.714844 26.210938 14.9375 C 27.433594 15.359375 28.148438 16.304688 28.605469 15.566406 C 28.855469 15.15625 28.710938 14.429688 28.636719 13.945312 C 28.457031 12.765625 26.105469 12.144531 24.976562 12.5625 C 24.757812 12.644531 24.472656 12.675781 24.210938 12.726562 C 23.832031 12.800781 23.566406 13.039062 23.386719 13.371094 C 23.277344 13.578125 23.191406 13.753906 22.898438 14.03125 C 22.25 14.636719 21.378906 14.621094 21.277344 15.988281 C 21.09375 18.429688 22.097656 19.273438 22.863281 19.847656 C 23.050781 19.992188 23.632812 20.390625 23.6875 20.554688 C 23.757812 20.765625 23.578125 20.964844 23.238281 20.785156 C 23.152344 20.738281 23.0625 20.679688 22.972656 20.609375 C 22.816406 20.496094 22.683594 20.542969 22.617188 20.71875 C 22.152344 21.90625 23.539062 22.828125 22.164062 24.230469 C 21.84375 24.558594 21.21875 25.046875 21.011719 25.578125 C 20.757812 26.25 20.773438 27.03125 21.144531 27.585938 C 21.917969 26.160156 22.234375 26.417969 22.714844 25.917969 C 23.082031 25.542969 23.332031 24.300781 23.773438 23.664062 C 24.257812 22.953125 24.050781 22.757812 24.191406 22.007812 C 24.296875 21.460938 24.507812 20.898438 24.839844 20.496094 C 25.121094 20.152344 25.511719 19.9375 25.929688 19.800781 C 26.359375 19.660156 26.332031 19.40625 26.40625 19.046875 C 26.492188 18.632812 26.644531 18.304688 26.84375 18.117188 C 27.328125 17.65625 27.933594 18.226562 27.488281 18.644531 C 27.035156 19.070312 26.640625 19.738281 27.425781 20.058594 C 28.03125 20.308594 28.925781 20.355469 29.394531 20.082031 C 29.75 19.878906 29.660156 19.414062 29.546875 19.105469 C 29.425781 18.765625 29.265625 18.34375 29.175781 17.953125 C 29.023438 17.304688 28.917969 17.074219 28.730469 16.714844 C 28.558594 16.378906 28.300781 16.332031 27.976562 16.25 C 27.4375 16.117188 27.082031 15.65625 26.234375 15.328125 Z M 27.492188 16.445312 C 27.082031 16.753906 26.6875 16.207031 26.121094 15.972656 C 25.601562 15.757812 24.777344 15.832031 24.351562 16.203125 C 25.140625 17.691406 26.097656 16.984375 26.738281 16.804688 C 26.882812 16.765625 27.023438 16.835938 26.90625 17.007812 C 26.480469 17.625 24.585938 17.851562 24.039062 16.335938 C 23.859375 16.398438 23.746094 16.441406 23.625 16.402344 C 23.480469 16.359375 23.441406 16.226562 23.542969 16.140625 C 23.992188 15.761719 25.578125 15.136719 26.65625 15.804688 C 26.890625 15.949219 27.402344 16.261719 27.492188 16.445312 " fill-opacity="1" fill-rule="evenodd"/></g></svg>