<svg xmlns="http://www.w3.org/2000/svg" xmlns:xlink="http://www.w3.org/1999/xlink" width="50" zoomAndPan="magnify" viewBox="0 0 37.5 37.499999" height="50" preserveAspectRatio="xMidYMid meet" version="1.0"><defs><clipPath id="id1"><path d="M 6.679688 0 L 30.679688 0 L 30.679688 37.007812 L 6.679688 37.007812 Z M 6.679688 0 " clip-rule="nonzero"/></clipPath></defs><path fill="#cb6ce6" d="M 24.472656 11.671875 C 24.316406 11.378906 24.511719 11.027344 24.382812 10.726562 C 24.261719 10.4375 23.941406 10.324219 23.652344 10.316406 C 22.917969 10.296875 22.207031 10.632812 21.570312 10.964844 C 21.5625 10.972656 21.554688 10.976562 21.550781 10.984375 C 21.519531 11.007812 21.515625 11.070312 21.570312 11.082031 C 22.074219 11.175781 22.542969 11.378906 23.027344 11.539062 C 23.457031 11.683594 23.957031 11.835938 24.414062 11.757812 C 24.453125 11.761719 24.5 11.71875 24.472656 11.671875 Z M 22.96875 11.402344 C 22.5625 11.261719 22.164062 11.101562 21.742188 11.003906 C 22.304688 10.710938 22.910156 10.445312 23.550781 10.425781 C 23.902344 10.414062 24.296875 10.542969 24.320312 10.953125 C 24.335938 11.191406 24.265625 11.425781 24.34375 11.648438 C 23.890625 11.71875 23.390625 11.550781 22.96875 11.402344 Z M 22.96875 11.402344 " fill-opacity="1" fill-rule="nonzero"/><path fill="#cb6ce6" d="M 25.84375 14.222656 C 25.449219 14.320312 25.128906 14.660156 25.074219 15.066406 C 25.019531 15.476562 25.238281 15.890625 25.589844 16.089844 C 25.652344 16.128906 25.710938 16.027344 25.644531 15.992188 C 25.332031 15.8125 25.132812 15.449219 25.183594 15.082031 C 25.234375 14.714844 25.519531 14.417969 25.871094 14.332031 C 25.945312 14.3125 25.914062 14.203125 25.84375 14.222656 Z M 25.84375 14.222656 " fill-opacity="1" fill-rule="nonzero"/><path fill="#cb6ce6" d="M 27.378906 15.699219 C 27.308594 15.5625 27.171875 15.523438 27.035156 15.484375 C 26.871094 15.4375 26.695312 15.410156 26.519531 15.40625 C 26.292969 15.402344 25.839844 15.441406 25.78125 15.726562 C 25.769531 15.796875 25.878906 15.828125 25.890625 15.757812 C 25.9375 15.523438 26.394531 15.511719 26.570312 15.519531 C 26.757812 15.527344 27.183594 15.5625 27.28125 15.753906 C 27.316406 15.820312 27.414062 15.761719 27.378906 15.699219 Z M 27.378906 15.699219 " fill-opacity="1" fill-rule="nonzero"/><path fill="#cb6ce6" d="M 24.863281 11.527344 C 24.742188 11.3125 24.800781 11.070312 24.804688 10.835938 C 24.808594 10.644531 24.789062 10.449219 24.710938 10.269531 C 24.554688 9.917969 24.1875 9.75 23.816406 9.722656 C 23.382812 9.695312 22.921875 9.8125 22.511719 9.945312 C 22.089844 10.082031 21.6875 10.277344 21.3125 10.515625 C 21.25 10.554688 21.304688 10.648438 21.367188 10.613281 C 21.714844 10.390625 22.082031 10.210938 22.46875 10.078125 C 22.863281 9.941406 23.292969 9.832031 23.710938 9.832031 C 24.144531 9.832031 24.554688 10.03125 24.664062 10.484375 C 24.746094 10.84375 24.578125 11.246094 24.765625 11.582031 C 24.800781 11.644531 24.898438 11.589844 24.863281 11.527344 Z M 24.863281 11.527344 " fill-opacity="1" fill-rule="nonzero"/><path fill="#cb6ce6" d="M 26.78125 20.085938 C 26.695312 19.835938 26.519531 19.625 26.289062 19.5 C 26 19.34375 25.636719 19.351562 25.320312 19.386719 C 25.25 19.394531 25.246094 19.503906 25.320312 19.496094 C 25.605469 19.46875 25.933594 19.453125 26.199219 19.578125 C 26.421875 19.683594 26.59375 19.882812 26.675781 20.117188 C 26.695312 20.183594 26.804688 20.15625 26.78125 20.085938 Z M 26.78125 20.085938 " fill-opacity="1" fill-rule="nonzero"/><path fill="#cb6ce6" d="M 23.503906 23.605469 C 22.996094 23.675781 22.492188 23.535156 22.011719 23.382812 C 21.585938 23.25 21.167969 23.097656 20.753906 22.929688 C 19.90625 22.578125 19.085938 22.152344 18.308594 21.65625 C 17.871094 21.375 17.445312 21.070312 17.035156 20.746094 C 16.976562 20.703125 16.898438 20.78125 16.957031 20.824219 C 18.4375 21.996094 20.121094 22.898438 21.914062 23.46875 C 22.4375 23.636719 22.980469 23.792969 23.535156 23.714844 C 23.601562 23.707031 23.574219 23.597656 23.503906 23.605469 Z M 23.503906 23.605469 " fill-opacity="1" fill-rule="nonzero"/><path fill="#cb6ce6" d="M 26.527344 9.460938 C 26.355469 9.167969 26.078125 8.988281 25.773438 8.859375 C 25.398438 8.699219 24.992188 8.609375 24.605469 8.515625 C 24.171875 8.414062 23.730469 8.347656 23.28125 8.378906 C 22.859375 8.40625 22.441406 8.511719 22.042969 8.660156 C 21.582031 8.828125 21.148438 9.054688 20.722656 9.296875 C 20.664062 9.335938 20.71875 9.429688 20.78125 9.394531 C 21.6875 8.875 22.691406 8.417969 23.757812 8.492188 C 24.292969 8.53125 24.816406 8.679688 25.328125 8.828125 C 25.75 8.949219 26.191406 9.125 26.425781 9.519531 C 26.46875 9.578125 26.5625 9.523438 26.527344 9.460938 Z M 26.527344 9.460938 " fill-opacity="1" fill-rule="nonzero"/><g clip-path="url(#id1)"><path fill="#cb6ce6" d="M 30.636719 30.605469 C 29.941406 30.285156 29.515625 29.613281 28.933594 29.140625 C 28.636719 28.902344 28.300781 28.730469 27.921875 28.671875 C 27.488281 28.609375 27.046875 28.6875 26.621094 28.785156 C 26.609375 28.777344 26.597656 28.773438 26.578125 28.777344 C 26.335938 28.820312 26.066406 28.851562 25.878906 28.652344 C 25.753906 28.511719 25.699219 28.3125 25.660156 28.128906 C 25.5625 27.671875 25.484375 27.21875 25.351562 26.769531 C 25.21875 26.316406 25.050781 25.871094 24.855469 25.441406 C 24.761719 25.226562 24.65625 25.015625 24.546875 24.808594 C 24.429688 24.589844 24.25 24.359375 24.265625 24.101562 C 24.269531 24.097656 24.277344 24.09375 24.28125 24.082031 C 24.601562 23.53125 25.28125 23.425781 25.828125 23.21875 C 26.347656 23.019531 26.730469 22.683594 26.917969 22.144531 C 27.007812 21.898438 27.046875 21.628906 27.066406 21.367188 C 27.085938 21.039062 27.039062 20.710938 27.144531 20.390625 C 27.25 20.070312 27.367188 19.773438 27.433594 19.445312 C 27.496094 19.109375 27.566406 18.78125 27.660156 18.453125 C 27.859375 17.757812 28.105469 17.03125 27.90625 16.3125 C 27.941406 16.296875 27.980469 16.277344 28.015625 16.261719 C 28.207031 16.175781 28.40625 16.085938 28.546875 15.917969 C 28.785156 15.640625 28.808594 15.238281 28.730469 14.894531 C 28.632812 14.433594 28.347656 14.046875 28.1875 13.609375 C 28.128906 13.449219 28.085938 13.289062 28.046875 13.125 C 28.484375 12.773438 28.84375 12.324219 29.089844 11.820312 C 29.214844 11.5625 29.3125 11.292969 29.375 11.011719 C 29.402344 10.894531 29.421875 10.777344 29.4375 10.65625 C 29.460938 10.476562 29.4375 10.253906 29.578125 10.121094 C 29.671875 10.03125 29.808594 9.992188 29.921875 9.933594 C 30.03125 9.875 30.136719 9.804688 30.226562 9.714844 C 30.394531 9.542969 30.511719 9.324219 30.566406 9.089844 C 30.621094 8.847656 30.597656 8.597656 30.503906 8.363281 C 30.390625 8.085938 30.191406 7.832031 30.140625 7.527344 C 30.082031 7.171875 30.238281 6.804688 30.132812 6.453125 C 30.070312 6.242188 29.933594 6.058594 29.722656 6.007812 C 29.804688 5.851562 29.84375 5.667969 29.816406 5.472656 C 29.90625 5.410156 29.984375 5.332031 30.042969 5.238281 C 30.199219 4.996094 30.109375 4.707031 30.171875 4.441406 C 30.203125 4.3125 30.253906 4.1875 30.265625 4.054688 C 30.285156 3.917969 30.261719 3.78125 30.21875 3.652344 C 30.136719 3.382812 29.992188 3.113281 29.839844 2.875 C 29.585938 2.472656 29.175781 2.207031 28.710938 2.144531 C 29.003906 1.988281 29.207031 1.667969 29.179688 1.324219 C 29.144531 0.867188 28.78125 0.550781 28.34375 0.507812 C 28.054688 0.480469 27.765625 0.527344 27.480469 0.453125 C 27.214844 0.386719 26.96875 0.265625 26.714844 0.167969 C 26.484375 0.0820312 26.238281 0.0117188 25.988281 0.0195312 C 25.761719 0.0273438 25.542969 0.101562 25.335938 0.191406 C 25.09375 0.300781 24.859375 0.429688 24.609375 0.519531 C 24.34375 0.609375 24.082031 0.628906 23.804688 0.574219 C 23.523438 0.515625 23.253906 0.410156 22.972656 0.34375 C 22.714844 0.285156 22.453125 0.28125 22.191406 0.3125 C 21.644531 0.386719 21.128906 0.597656 20.585938 0.683594 C 20.296875 0.726562 20.023438 0.699219 19.734375 0.683594 C 19.601562 0.675781 19.464844 0.675781 19.332031 0.714844 C 19.1875 0.75 19.066406 0.835938 18.929688 0.886719 C 18.386719 1.078125 17.824219 0.707031 17.269531 0.765625 C 16.765625 0.8125 16.328125 1.085938 15.890625 1.3125 C 15.640625 1.441406 15.382812 1.554688 15.109375 1.621094 C 14.804688 1.691406 14.488281 1.714844 14.175781 1.75 C 13.679688 1.800781 13.167969 1.878906 12.746094 2.160156 C 12.554688 2.285156 12.398438 2.453125 12.285156 2.648438 C 12.21875 2.761719 12.160156 2.886719 12.082031 2.996094 C 11.984375 3.128906 11.851562 3.226562 11.71875 3.316406 C 11.242188 3.625 10.753906 3.914062 10.304688 4.261719 C 9.449219 4.917969 8.695312 5.742188 8.324219 6.773438 C 8.238281 7.015625 8.171875 7.269531 8.136719 7.523438 C 8.097656 7.8125 8.101562 8.105469 8.082031 8.398438 C 8.0625 8.714844 8 9.011719 7.863281 9.300781 C 7.746094 9.554688 7.59375 9.789062 7.453125 10.027344 C 6.898438 10.949219 6.679688 12.023438 6.890625 13.089844 C 6.9375 13.351562 7.015625 13.609375 7.121094 13.855469 C 6.832031 14.5 6.964844 15.285156 7.429688 15.8125 C 7.679688 16.089844 8.023438 16.210938 8.320312 16.429688 C 8.519531 16.574219 8.640625 16.78125 8.613281 17.035156 C 8.585938 17.300781 8.4375 17.527344 8.332031 17.765625 C 8.183594 18.105469 8.113281 18.628906 8.527344 18.816406 C 8.542969 18.824219 8.5625 18.820312 8.574219 18.816406 C 8.398438 19.273438 8.226562 19.742188 8.203125 20.238281 C 8.183594 20.597656 8.253906 21.019531 8.484375 21.3125 C 8.476562 21.320312 8.472656 21.332031 8.472656 21.34375 C 8.429688 21.847656 8.402344 22.378906 8.609375 22.855469 C 8.699219 23.054688 8.824219 23.238281 8.996094 23.378906 C 9.1875 23.535156 9.40625 23.636719 9.535156 23.859375 C 9.660156 24.070312 9.707031 24.316406 9.757812 24.550781 C 9.816406 24.808594 9.882812 25.058594 9.964844 25.304688 C 10.121094 25.765625 10.34375 26.207031 10.664062 26.574219 C 10.988281 26.953125 11.414062 27.242188 11.898438 27.367188 C 11.910156 27.371094 11.917969 27.371094 11.929688 27.367188 C 11.9375 27.632812 11.941406 27.902344 11.949219 28.167969 C 11.964844 28.613281 11.976562 29.066406 11.917969 29.507812 C 11.730469 31.039062 10.570312 32.367188 9.324219 33.179688 C 8.644531 33.625 7.886719 33.945312 7.09375 34.113281 C 7.089844 34.113281 7.0625 34.117188 7.054688 34.121094 C 7.019531 34.144531 6.992188 34.179688 6.992188 34.222656 C 6.992188 34.230469 6.996094 34.238281 7 34.246094 C 6.910156 34.46875 6.839844 34.695312 6.800781 34.929688 C 6.761719 35.164062 6.800781 35.324219 6.972656 35.484375 C 7.328125 35.816406 7.777344 36.019531 8.230469 36.175781 C 9.292969 36.546875 10.410156 36.785156 11.519531 36.941406 C 12.628906 37.101562 13.753906 37.164062 14.875 37.132812 C 15.449219 37.113281 16.023438 37.070312 16.597656 37 C 17.171875 36.933594 17.746094 36.816406 18.328125 36.835938 C 19.460938 36.875 20.519531 37.488281 21.667969 37.378906 C 21.925781 37.398438 22.191406 37.378906 22.464844 37.3125 C 23.347656 37.097656 24.140625 36.546875 24.917969 36.09375 C 25.34375 35.84375 25.773438 35.597656 26.199219 35.347656 C 26.609375 35.109375 27.027344 34.875 27.410156 34.589844 C 28.636719 33.660156 29.117188 32.113281 30.207031 31.0625 C 30.34375 30.929688 30.488281 30.804688 30.644531 30.695312 C 30.667969 30.679688 30.679688 30.625 30.636719 30.605469 Z M 30.0625 6.714844 C 30.066406 7.011719 29.980469 7.308594 30.042969 7.605469 C 30.101562 7.875 30.265625 8.101562 30.375 8.347656 C 30.488281 8.601562 30.519531 8.871094 30.441406 9.136719 C 30.371094 9.378906 30.21875 9.605469 30.011719 9.753906 C 29.835938 9.878906 29.582031 9.921875 29.449219 10.105469 C 29.382812 10.199219 29.363281 10.304688 29.351562 10.417969 C 29.339844 10.566406 29.324219 10.710938 29.296875 10.855469 C 29.246094 11.121094 29.167969 11.382812 29.058594 11.628906 C 28.824219 12.164062 28.464844 12.636719 28.019531 13.007812 C 27.996094 12.90625 27.972656 12.800781 27.945312 12.703125 C 28.320312 12.433594 28.320312 11.964844 28.421875 11.554688 C 28.480469 11.3125 28.621094 11.132812 28.730469 10.917969 C 28.828125 10.734375 28.847656 10.546875 28.789062 10.347656 C 28.769531 10.28125 28.75 10.21875 28.722656 10.15625 C 28.722656 10.144531 28.71875 10.132812 28.710938 10.125 C 28.652344 9.96875 28.582031 9.816406 28.5625 9.644531 C 28.535156 9.425781 28.523438 9.21875 28.4375 9.019531 C 28.347656 8.820312 28.203125 8.640625 28.148438 8.425781 C 28.085938 8.183594 28.222656 7.945312 28.144531 7.707031 C 28.144531 7.699219 28.140625 7.695312 28.136719 7.6875 C 28.136719 7.6875 28.136719 7.683594 28.136719 7.679688 C 28.140625 7.417969 27.96875 7.226562 27.789062 7.0625 C 27.777344 7.050781 27.765625 7.042969 27.757812 7.03125 C 28.261719 6.992188 28.753906 6.84375 29.183594 6.574219 C 29.371094 6.453125 29.546875 6.296875 29.667969 6.117188 C 29.9375 6.148438 30.058594 6.46875 30.0625 6.714844 Z M 27.910156 12.589844 C 27.875 12.464844 27.835938 12.335938 27.777344 12.214844 C 27.664062 11.957031 27.527344 11.699219 27.5 11.417969 C 27.46875 11.113281 27.589844 10.824219 27.703125 10.550781 C 27.703125 10.546875 27.707031 10.546875 27.707031 10.542969 C 27.707031 10.539062 27.710938 10.539062 27.710938 10.535156 C 27.890625 10.210938 28.265625 9.984375 28.609375 10.199219 C 28.699219 10.417969 28.75 10.625 28.640625 10.851562 C 28.554688 11.03125 28.425781 11.183594 28.359375 11.375 C 28.214844 11.769531 28.273438 12.300781 27.910156 12.589844 Z M 27.679688 6.921875 C 27.664062 6.921875 27.652344 6.925781 27.648438 6.933594 C 27.453125 6.757812 27.246094 6.597656 27.039062 6.4375 C 27.007812 6.410156 26.96875 6.386719 26.9375 6.355469 C 26.9375 6.355469 26.9375 6.355469 26.941406 6.355469 C 27.195312 6.355469 27.425781 6.257812 27.648438 6.140625 C 27.882812 6.023438 28.074219 5.898438 28.179688 5.652344 C 28.242188 5.503906 28.339844 5.257812 28.546875 5.382812 C 28.652344 5.445312 28.738281 5.523438 28.855469 5.574219 C 29.0625 5.65625 29.296875 5.671875 29.515625 5.613281 C 29.585938 5.59375 29.652344 5.566406 29.71875 5.53125 C 29.761719 5.996094 29.371094 6.335938 29 6.546875 C 28.59375 6.773438 28.140625 6.902344 27.679688 6.921875 Z M 10.070312 25.273438 C 9.988281 25.042969 9.925781 24.804688 9.871094 24.5625 C 9.828125 24.359375 9.785156 24.152344 9.703125 23.953125 C 9.625 23.765625 9.511719 23.613281 9.351562 23.492188 C 9.15625 23.347656 8.960938 23.230469 8.824219 23.023438 C 8.511719 22.546875 8.53125 21.957031 8.574219 21.410156 C 8.59375 21.429688 8.617188 21.449219 8.640625 21.46875 C 9.273438 21.957031 10.238281 21.867188 10.875 21.414062 C 10.878906 21.414062 10.886719 21.414062 10.886719 21.414062 C 11.285156 21.324219 11.707031 21.351562 12.054688 21.574219 C 12.375 21.785156 12.550781 22.128906 12.550781 22.511719 C 12.550781 23.230469 12.035156 24.152344 11.230469 24.121094 C 11.160156 24.121094 11.160156 24.230469 11.230469 24.234375 C 11.453125 24.242188 11.652344 24.183594 11.828125 24.082031 C 11.824219 24.089844 11.824219 24.09375 11.824219 24.101562 C 11.851562 25.015625 11.878906 25.921875 11.902344 26.832031 C 11.90625 26.972656 11.910156 27.117188 11.914062 27.257812 C 10.976562 27.011719 10.371094 26.160156 10.070312 25.273438 Z M 18.753906 36.773438 C 18.238281 36.695312 17.726562 36.742188 17.210938 36.8125 C 16.65625 36.890625 16.105469 36.957031 15.546875 36.992188 C 13.394531 37.132812 11.21875 36.910156 9.136719 36.339844 C 8.585938 36.1875 8.019531 36.035156 7.519531 35.75 C 7.40625 35.683594 7.289062 35.609375 7.179688 35.523438 C 7.078125 35.441406 6.9375 35.339844 6.898438 35.207031 C 6.847656 35.050781 6.917969 34.847656 6.957031 34.691406 C 6.992188 34.566406 7.035156 34.445312 7.082031 34.324219 C 8.6875 35.144531 10.421875 35.714844 12.199219 36 C 13.09375 36.144531 13.992188 36.21875 14.894531 36.21875 C 15.355469 36.21875 15.816406 36.203125 16.277344 36.167969 C 16.761719 36.128906 17.246094 36.078125 17.734375 36.105469 C 18.1875 36.128906 18.621094 36.234375 19.042969 36.40625 C 19.425781 36.566406 19.789062 36.761719 20.160156 36.9375 C 20.445312 37.070312 20.730469 37.191406 21.023438 37.269531 C 20.257812 37.195312 19.515625 36.882812 18.753906 36.773438 Z M 27.867188 34.023438 C 27.242188 34.695312 26.394531 35.105469 25.613281 35.558594 C 25.1875 35.808594 24.761719 36.054688 24.332031 36.304688 C 23.941406 36.53125 23.554688 36.765625 23.144531 36.953125 C 22.726562 37.144531 22.28125 37.285156 21.820312 37.285156 C 21.800781 37.289062 21.65625 37.269531 21.605469 37.277344 C 21.269531 37.246094 20.945312 37.148438 20.628906 37.023438 C 19.890625 36.722656 19.207031 36.265625 18.425781 36.082031 C 17.511719 35.871094 16.566406 36.050781 15.644531 36.089844 C 14.75 36.128906 13.851562 36.09375 12.960938 35.988281 C 11.152344 35.78125 9.378906 35.28125 7.730469 34.511719 C 7.527344 34.417969 7.328125 34.320312 7.125 34.21875 L 7.125 34.214844 C 8.550781 33.90625 9.867188 33.125 10.820312 32.015625 C 11.324219 31.429688 11.753906 30.742188 11.941406 29.984375 C 12.160156 29.117188 12.058594 28.183594 12.035156 27.300781 C 12.003906 26.234375 11.972656 25.164062 11.941406 24.101562 C 11.941406 24.066406 11.917969 24.050781 11.890625 24.046875 C 12.386719 23.722656 12.683594 23.035156 12.664062 22.460938 C 12.648438 22.0625 12.460938 21.710938 12.132812 21.484375 C 12.113281 21.472656 12.09375 21.460938 12.074219 21.449219 C 12.320312 21.382812 12.488281 21.105469 12.589844 20.878906 C 12.746094 20.523438 12.722656 20.136719 12.589844 19.777344 C 12.929688 19.703125 12.941406 19.277344 12.9375 18.992188 C 12.929688 18.640625 12.855469 18.273438 12.542969 18.074219 C 12.558594 18.0625 12.574219 18.050781 12.589844 18.035156 C 12.902344 17.785156 13.054688 17.394531 13.082031 17.003906 C 13.105469 16.667969 13.070312 16.289062 12.867188 16.011719 C 12.949219 16.03125 13.03125 16.0625 13.101562 16.117188 C 13.1875 16.1875 13.25 16.289062 13.332031 16.367188 C 13.46875 16.496094 13.640625 16.585938 13.824219 16.625 C 13.894531 16.636719 13.960938 16.644531 14.03125 16.648438 C 14.027344 16.660156 14.023438 16.671875 14.027344 16.683594 C 14.132812 17.160156 14.242188 17.65625 14.449219 18.101562 C 14.636719 18.515625 14.96875 18.828125 15.296875 19.132812 C 15.351562 19.179688 15.429688 19.101562 15.375 19.054688 C 15.050781 18.757812 14.726562 18.453125 14.542969 18.046875 C 14.34375 17.613281 14.234375 17.121094 14.132812 16.65625 C 14.132812 16.652344 14.132812 16.648438 14.128906 16.648438 C 14.429688 16.628906 14.710938 16.484375 14.890625 16.234375 C 15.132812 15.890625 15.148438 15.410156 14.929688 15.050781 C 14.890625 14.988281 14.796875 15.046875 14.832031 15.105469 C 15.023438 15.421875 15.015625 15.835938 14.816406 16.148438 C 14.601562 16.476562 14.183594 16.605469 13.816406 16.511719 C 13.617188 16.460938 13.457031 16.355469 13.328125 16.199219 C 13.203125 16.058594 13.085938 15.953125 12.898438 15.910156 C 12.707031 15.863281 12.511719 15.863281 12.320312 15.8125 C 12.140625 15.761719 11.964844 15.679688 11.804688 15.578125 C 11.707031 15.515625 11.613281 15.445312 11.53125 15.371094 C 11.523438 15.363281 11.519531 15.355469 11.511719 15.355469 C 10.984375 14.882812 10.703125 14.183594 10.65625 13.476562 C 10.625 13.011719 10.683594 12.546875 10.800781 12.097656 C 10.914062 11.667969 11.089844 11.222656 11.457031 10.949219 C 11.820312 10.679688 12.289062 10.609375 12.730469 10.605469 C 13.183594 10.605469 13.699219 10.648438 14.042969 10.980469 C 14.054688 10.992188 14.066406 10.996094 14.078125 10.996094 C 14.082031 11.070312 14.097656 11.140625 14.125 11.210938 C 14.1875 11.363281 14.316406 11.480469 14.460938 11.5625 C 14.800781 11.75 15.21875 11.769531 15.59375 11.703125 C 16.125 11.609375 16.75 11.3125 17 10.816406 C 17.136719 10.992188 17.160156 11.234375 17.144531 11.453125 C 17.125 11.738281 16.949219 11.96875 16.761719 12.171875 C 16.441406 12.523438 15.964844 12.777344 15.492188 12.621094 C 15.488281 12.582031 15.449219 12.554688 15.410156 12.578125 C 15.402344 12.582031 15.390625 12.59375 15.378906 12.597656 C 15.332031 12.625 15.347656 12.683594 15.390625 12.703125 C 15.957031 12.941406 16.535156 12.617188 16.898438 12.183594 C 16.957031 12.105469 17.015625 12.035156 17.070312 11.957031 C 17.296875 12.335938 16.996094 12.828125 16.738281 13.113281 C 16.453125 13.425781 15.980469 13.625 15.605469 13.339844 C 15.546875 13.296875 15.488281 13.394531 15.546875 13.4375 C 15.859375 13.675781 16.238281 13.617188 16.539062 13.421875 C 16.878906 13.664062 17.125 14.054688 17.074219 14.488281 C 17.027344 14.910156 16.664062 15.261719 16.234375 15.199219 C 16.480469 14.816406 16.378906 14.320312 15.984375 14.070312 C 15.925781 14.03125 15.867188 14.128906 15.929688 14.167969 C 16.28125 14.390625 16.367188 14.855469 16.109375 15.183594 C 16.082031 15.21875 16.097656 15.257812 16.125 15.273438 C 16.128906 15.285156 16.140625 15.296875 16.160156 15.300781 C 16.644531 15.398438 17.089844 15.050781 17.175781 14.574219 C 17.261719 14.089844 17.011719 13.644531 16.636719 13.359375 C 16.714844 13.296875 16.78125 13.234375 16.84375 13.160156 C 17.144531 12.816406 17.429688 12.277344 17.132812 11.851562 C 17.199219 11.722656 17.246094 11.585938 17.253906 11.429688 C 17.269531 11.167969 17.230469 10.894531 17.046875 10.699219 C 17.074219 10.636719 17.089844 10.566406 17.101562 10.496094 C 17.257812 10.507812 17.386719 10.378906 17.492188 10.269531 C 17.570312 10.179688 17.640625 10.085938 17.6875 9.980469 C 17.695312 9.992188 17.707031 10 17.726562 10 C 18.417969 10.039062 18.996094 9.484375 19.039062 8.804688 C 19.058594 8.433594 19.007812 8.042969 18.765625 7.746094 C 18.542969 7.46875 18.222656 7.292969 17.910156 7.132812 C 17.847656 7.101562 17.792969 7.199219 17.855469 7.230469 C 18.117188 7.371094 18.386719 7.507812 18.597656 7.722656 C 18.863281 7.988281 18.933594 8.335938 18.933594 8.703125 C 18.929688 9.042969 18.816406 9.355469 18.566406 9.585938 C 18.339844 9.796875 18.039062 9.910156 17.730469 9.890625 C 17.726562 9.890625 17.726562 9.890625 17.726562 9.890625 C 17.738281 9.851562 17.75 9.816406 17.757812 9.773438 C 17.800781 9.5625 17.773438 9.320312 17.734375 9.105469 C 17.691406 8.890625 17.582031 8.738281 17.421875 8.597656 C 17.367188 8.550781 17.289062 8.628906 17.34375 8.675781 C 17.472656 8.789062 17.578125 8.910156 17.621094 9.085938 C 17.65625 9.25 17.675781 9.433594 17.667969 9.605469 C 17.664062 9.773438 17.609375 9.925781 17.515625 10.066406 C 17.441406 10.179688 17.273438 10.394531 17.117188 10.386719 C 17.117188 10.375 17.117188 10.363281 17.117188 10.347656 C 17.121094 9.992188 16.964844 9.648438 16.679688 9.433594 C 16.621094 9.390625 16.566406 9.484375 16.625 9.53125 C 16.917969 9.753906 17.050781 10.140625 16.996094 10.496094 C 16.933594 10.925781 16.59375 11.183594 16.234375 11.371094 C 15.839844 11.574219 15.382812 11.679688 14.945312 11.609375 C 14.746094 11.574219 14.539062 11.507812 14.382812 11.375 C 14.164062 11.1875 14.171875 10.921875 14.234375 10.664062 C 14.25 10.59375 14.140625 10.5625 14.125 10.632812 C 14.105469 10.710938 14.089844 10.792969 14.082031 10.871094 C 13.769531 10.597656 13.351562 10.527344 12.949219 10.507812 C 12.527344 10.488281 12.082031 10.519531 11.695312 10.691406 C 11.273438 10.878906 10.996094 11.230469 10.828125 11.652344 C 10.644531 12.117188 10.554688 12.632812 10.539062 13.132812 C 10.515625 13.992188 10.789062 14.867188 11.4375 15.441406 C 11.597656 15.910156 11.226562 16.429688 10.859375 16.675781 C 10.515625 16.902344 9.878906 17.082031 9.578125 16.699219 C 9.535156 16.644531 9.457031 16.722656 9.5 16.777344 C 9.828125 17.199219 10.535156 17.023438 10.914062 16.773438 C 11.28125 16.527344 11.644531 16.03125 11.578125 15.558594 C 11.910156 15.808594 12.273438 15.941406 12.679688 15.988281 C 12.6875 15.988281 12.695312 15.992188 12.699219 15.992188 C 12.703125 15.996094 12.707031 16 12.707031 16 C 12.960938 16.25 13 16.648438 12.980469 16.984375 C 12.957031 17.34375 12.824219 17.703125 12.546875 17.9375 C 12.269531 18.175781 11.816406 18.242188 11.460938 18.261719 C 11.101562 18.28125 10.714844 18.183594 10.523438 17.855469 C 10.488281 17.792969 10.390625 17.847656 10.425781 17.910156 C 10.613281 18.238281 10.984375 18.371094 11.351562 18.375 C 11.585938 18.375 11.824219 18.332031 12.054688 18.28125 C 12.195312 18.246094 12.332031 18.203125 12.457031 18.132812 C 12.457031 18.148438 12.464844 18.164062 12.484375 18.175781 C 12.746094 18.339844 12.8125 18.652344 12.824219 18.949219 C 12.832031 19.195312 12.855469 19.632812 12.527344 19.683594 C 12.5 19.683594 12.488281 19.703125 12.488281 19.722656 C 12.472656 19.734375 12.464844 19.753906 12.472656 19.78125 C 12.585938 20.078125 12.632812 20.402344 12.535156 20.707031 C 12.453125 20.972656 12.222656 21.421875 11.890625 21.355469 C 11.878906 21.351562 11.875 21.355469 11.871094 21.355469 C 11.613281 21.253906 11.328125 21.234375 11.050781 21.273438 C 11.402344 20.953125 11.625 20.515625 11.691406 20.046875 C 11.699219 19.976562 11.59375 19.945312 11.582031 20.015625 C 11.472656 20.8125 10.882812 21.480469 10.09375 21.640625 C 9.679688 21.730469 9.222656 21.679688 8.84375 21.472656 C 8.425781 21.242188 8.289062 20.742188 8.300781 20.289062 C 8.320312 19.769531 8.507812 19.273438 8.695312 18.796875 C 8.707031 18.757812 8.679688 18.730469 8.648438 18.730469 C 8.640625 18.71875 8.628906 18.710938 8.609375 18.710938 C 8.59375 18.710938 8.582031 18.714844 8.574219 18.722656 C 8.101562 18.511719 8.378906 17.90625 8.539062 17.582031 C 8.699219 17.25 8.828125 16.851562 8.574219 16.53125 C 8.367188 16.265625 8.035156 16.15625 7.769531 15.976562 C 7.472656 15.769531 7.257812 15.453125 7.152344 15.105469 C 7.027344 14.707031 7.042969 14.273438 7.21875 13.894531 C 7.222656 13.890625 7.226562 13.882812 7.226562 13.875 C 7.230469 13.863281 7.230469 13.855469 7.226562 13.839844 C 6.820312 12.859375 6.816406 11.730469 7.210938 10.746094 C 7.414062 10.238281 7.757812 9.8125 7.980469 9.320312 C 8.210938 8.808594 8.183594 8.285156 8.226562 7.738281 C 8.316406 6.664062 8.910156 5.703125 9.667969 4.964844 C 10.066406 4.574219 10.511719 4.234375 10.976562 3.925781 C 11.199219 3.777344 11.425781 3.636719 11.65625 3.496094 C 11.863281 3.367188 12.0625 3.230469 12.203125 3.019531 C 12.347656 2.804688 12.4375 2.574219 12.636719 2.394531 C 12.824219 2.222656 13.054688 2.109375 13.289062 2.03125 C 13.804688 1.863281 14.355469 1.867188 14.886719 1.78125 C 15.398438 1.699219 15.828125 1.476562 16.28125 1.238281 C 16.507812 1.117188 16.738281 1.003906 16.988281 0.933594 C 17.257812 0.859375 17.527344 0.867188 17.804688 0.921875 C 18.050781 0.972656 18.296875 1.042969 18.550781 1.054688 C 18.660156 1.0625 18.777344 1.050781 18.882812 1.023438 C 19.019531 0.984375 19.132812 0.914062 19.261719 0.863281 C 19.539062 0.753906 19.835938 0.824219 20.121094 0.835938 C 20.371094 0.84375 20.617188 0.804688 20.859375 0.753906 C 21.382812 0.636719 21.894531 0.429688 22.433594 0.414062 C 22.980469 0.398438 23.457031 0.675781 23.992188 0.726562 C 24.472656 0.765625 24.886719 0.527344 25.304688 0.335938 C 25.539062 0.230469 25.789062 0.140625 26.046875 0.140625 C 26.304688 0.144531 26.550781 0.238281 26.785156 0.332031 C 27.015625 0.425781 27.246094 0.53125 27.492188 0.585938 C 27.75 0.648438 28.007812 0.617188 28.269531 0.632812 C 28.554688 0.648438 28.808594 0.761719 28.960938 1.015625 C 29.089844 1.234375 29.105469 1.503906 28.988281 1.730469 C 28.875 1.949219 28.667969 2.097656 28.425781 2.144531 C 28.398438 2.148438 28.386719 2.167969 28.386719 2.1875 C 28.378906 2.222656 28.394531 2.265625 28.4375 2.261719 C 28.457031 2.261719 28.476562 2.261719 28.496094 2.261719 C 28.503906 2.265625 28.511719 2.269531 28.523438 2.269531 C 28.527344 2.269531 28.535156 2.269531 28.535156 2.265625 L 28.542969 2.261719 C 29.003906 2.277344 29.433594 2.503906 29.699219 2.886719 C 29.851562 3.109375 29.988281 3.375 30.082031 3.628906 C 30.128906 3.753906 30.160156 3.882812 30.15625 4.015625 C 30.148438 4.160156 30.089844 4.292969 30.058594 4.429688 C 30 4.679688 30.082031 4.972656 29.941406 5.199219 C 29.816406 5.402344 29.574219 5.519531 29.34375 5.546875 C 29.101562 5.574219 28.871094 5.511719 28.679688 5.367188 C 28.53125 5.257812 28.378906 5.195312 28.226562 5.339844 C 28.136719 5.425781 28.101562 5.550781 28.050781 5.660156 C 27.984375 5.804688 27.875 5.898438 27.742188 5.976562 C 27.480469 6.128906 27.1875 6.273438 26.878906 6.257812 C 26.867188 6.257812 26.859375 6.257812 26.851562 6.261719 C 26.832031 6.257812 26.816406 6.257812 26.800781 6.257812 C 26.792969 6.257812 26.789062 6.257812 26.785156 6.257812 C 26.609375 6.125 26.4375 5.988281 26.265625 5.851562 C 26.113281 5.734375 25.960938 5.648438 25.789062 5.609375 C 26.277344 5.429688 26.714844 5.085938 26.59375 4.507812 C 26.578125 4.4375 26.472656 4.464844 26.484375 4.539062 C 26.558594 4.886719 26.335938 5.207031 26.046875 5.378906 C 25.753906 5.554688 25.382812 5.628906 25.042969 5.65625 C 24.445312 5.707031 23.480469 5.628906 23.339844 4.886719 C 23.328125 4.816406 23.222656 4.84375 23.234375 4.917969 C 23.273438 5.136719 23.378906 5.304688 23.53125 5.433594 C 23.527344 5.4375 23.523438 5.441406 23.523438 5.441406 C 23.289062 5.765625 22.9375 5.96875 22.558594 6.0625 C 22.351562 6.113281 22.144531 6.132812 21.929688 6.136719 C 21.765625 6.136719 21.597656 6.128906 21.445312 6.078125 C 21.492188 6.039062 21.535156 6 21.570312 5.949219 C 21.734375 5.722656 21.839844 5.445312 21.917969 5.183594 C 21.9375 5.113281 21.832031 5.085938 21.8125 5.152344 C 21.742188 5.382812 21.65625 5.613281 21.523438 5.816406 C 21.394531 6.019531 21.195312 6.109375 20.972656 6.183594 C 20.730469 6.265625 20.488281 6.253906 20.238281 6.207031 C 20.003906 6.167969 19.757812 6.136719 19.59375 5.941406 C 19.546875 5.886719 19.46875 5.96875 19.515625 6.019531 C 19.6875 6.222656 19.9375 6.265625 20.1875 6.308594 C 20.351562 6.339844 20.523438 6.359375 20.691406 6.347656 C 20.847656 6.984375 21.738281 7.304688 22.332031 7.0625 C 21.824219 7.929688 20.761719 8.265625 19.835938 7.871094 C 19.722656 7.824219 19.613281 7.777344 19.496094 7.753906 C 19.390625 7.730469 19.28125 7.71875 19.175781 7.679688 C 18.945312 7.597656 18.75 7.429688 18.613281 7.230469 C 18.316406 6.785156 18.328125 6.21875 18.472656 5.722656 C 18.492188 5.652344 18.386719 5.621094 18.363281 5.691406 C 18.144531 6.4375 18.269531 7.414062 19.070312 7.757812 C 19.273438 7.847656 19.496094 7.851562 19.703125 7.933594 C 19.914062 8.019531 20.121094 8.101562 20.347656 8.132812 C 20.761719 8.195312 21.191406 8.128906 21.5625 7.9375 C 21.960938 7.738281 22.289062 7.40625 22.488281 7.003906 C 22.492188 6.992188 22.492188 6.984375 22.492188 6.972656 C 22.609375 6.894531 22.707031 6.792969 22.773438 6.65625 C 22.804688 6.589844 22.707031 6.535156 22.675781 6.597656 C 22.320312 7.328125 21.003906 7.0625 20.796875 6.335938 C 20.863281 6.324219 20.929688 6.308594 21 6.289062 C 21.113281 6.246094 21.230469 6.207031 21.332031 6.148438 C 21.5 6.222656 21.6875 6.238281 21.878906 6.242188 C 22.113281 6.246094 22.355469 6.222656 22.585938 6.167969 C 22.996094 6.066406 23.367188 5.84375 23.617188 5.5 C 24.035156 5.789062 24.691406 5.8125 25.148438 5.757812 C 25.25 5.746094 25.363281 5.726562 25.480469 5.699219 C 25.488281 5.703125 25.496094 5.703125 25.507812 5.703125 C 25.824219 5.671875 26.042969 5.820312 26.285156 6.007812 C 26.507812 6.183594 26.726562 6.355469 26.949219 6.53125 C 27.164062 6.699219 27.378906 6.867188 27.582031 7.046875 C 27.773438 7.214844 28.015625 7.414062 28.011719 7.691406 C 28.011719 7.707031 28.015625 7.714844 28.019531 7.722656 C 28.019531 7.730469 28.019531 7.738281 28.023438 7.746094 C 28.089844 7.957031 27.980469 8.175781 28.007812 8.390625 C 28.039062 8.574219 28.136719 8.738281 28.226562 8.898438 C 28.347656 9.117188 28.398438 9.316406 28.421875 9.5625 C 28.441406 9.734375 28.476562 9.890625 28.535156 10.050781 C 28.175781 9.910156 27.792969 10.148438 27.601562 10.484375 C 27.597656 10.492188 27.59375 10.5 27.59375 10.507812 C 27.589844 10.515625 27.585938 10.519531 27.582031 10.527344 C 27.492188 10.738281 27.40625 10.953125 27.375 11.179688 C 27.351562 11.390625 27.386719 11.601562 27.460938 11.804688 C 27.539062 12.023438 27.648438 12.226562 27.734375 12.445312 C 27.816406 12.652344 27.863281 12.871094 27.910156 13.09375 C 27.886719 13.121094 27.902344 13.152344 27.929688 13.167969 C 27.976562 13.386719 28.035156 13.597656 28.121094 13.800781 C 28.207031 14.007812 28.316406 14.207031 28.410156 14.410156 C 28.59375 14.796875 28.746094 15.273438 28.554688 15.6875 C 28.445312 15.921875 28.238281 16.042969 28.015625 16.148438 C 27.738281 16.277344 27.460938 16.402344 27.183594 16.527344 C 27.117188 16.558594 27.171875 16.65625 27.238281 16.625 C 27.421875 16.542969 27.601562 16.457031 27.785156 16.375 C 27.960938 17.035156 27.75 17.703125 27.5625 18.335938 C 27.386719 18.949219 27.320312 19.59375 27.085938 20.195312 C 27.035156 20.335938 26.984375 20.472656 26.960938 20.621094 C 26.9375 20.785156 26.941406 20.953125 26.945312 21.125 C 26.945312 21.410156 26.917969 21.695312 26.847656 21.96875 C 26.773438 22.238281 26.65625 22.496094 26.464844 22.703125 C 26.257812 22.925781 25.980469 23.058594 25.699219 23.160156 C 25.144531 23.359375 24.492188 23.488281 24.171875 24.042969 C 24.171875 24.042969 24.167969 24.046875 24.167969 24.046875 C 24.15625 24.054688 24.140625 24.070312 24.140625 24.09375 C 24.125 24.277344 24.195312 24.441406 24.285156 24.597656 C 24.390625 24.789062 24.492188 24.976562 24.589844 25.167969 C 24.78125 25.550781 24.945312 25.949219 25.089844 26.355469 C 25.226562 26.761719 25.34375 27.171875 25.429688 27.589844 C 25.5 27.914062 25.519531 28.28125 25.679688 28.582031 C 25.859375 28.921875 26.1875 28.957031 26.53125 28.90625 C 26.539062 28.917969 26.558594 28.921875 26.578125 28.917969 C 27.050781 28.804688 27.546875 28.710938 28.027344 28.816406 C 28.398438 28.898438 28.710938 29.105469 28.992188 29.351562 C 29.488281 29.792969 29.894531 30.359375 30.492188 30.667969 C 29.339844 31.53125 28.839844 32.980469 27.867188 34.023438 Z M 27.867188 34.023438 " fill-opacity="1" fill-rule="nonzero"/></g><path fill="#cb6ce6" d="M 17.691406 6.933594 C 17.308594 6.953125 17.132812 7.378906 16.976562 7.667969 C 16.753906 8.074219 16.53125 8.484375 16.203125 8.816406 C 15.90625 9.117188 15.515625 9.359375 15.082031 9.375 C 14.695312 9.386719 14.300781 9.207031 14.105469 8.863281 C 14.234375 8.660156 14.3125 8.421875 14.292969 8.164062 C 14.289062 8.09375 14.175781 8.09375 14.183594 8.164062 C 14.195312 8.394531 14.136719 8.605469 14.019531 8.789062 C 13.996094 8.796875 13.972656 8.820312 13.976562 8.851562 C 13.800781 9.089844 13.535156 9.261719 13.230469 9.308594 C 12.941406 9.355469 12.636719 9.304688 12.371094 9.175781 C 12.117188 9.050781 11.847656 8.839844 11.820312 8.535156 C 11.8125 8.464844 11.703125 8.460938 11.707031 8.535156 C 11.765625 9.191406 12.628906 9.496094 13.1875 9.429688 C 13.523438 9.390625 13.824219 9.214844 14.03125 8.960938 C 14.214844 9.25 14.53125 9.425781 14.867188 9.472656 C 15.261719 9.523438 15.648438 9.386719 15.964844 9.15625 C 16.328125 8.898438 16.597656 8.535156 16.820312 8.15625 C 16.949219 7.945312 17.066406 7.722656 17.183594 7.507812 C 17.292969 7.308594 17.433594 7.058594 17.6875 7.042969 C 17.761719 7.042969 17.761719 6.929688 17.691406 6.933594 Z M 17.691406 6.933594 " fill-opacity="1" fill-rule="nonzero"/><path fill="#cb6ce6" d="M 17.628906 6.378906 C 17.160156 6.078125 16.496094 6.144531 16.113281 6.558594 C 15.664062 7.042969 15.632812 7.882812 14.988281 8.183594 C 14.925781 8.214844 14.980469 8.3125 15.042969 8.285156 C 15.601562 8.023438 15.722656 7.367188 16.011719 6.882812 C 16.175781 6.605469 16.40625 6.40625 16.71875 6.332031 C 17.011719 6.261719 17.316406 6.3125 17.570312 6.476562 C 17.632812 6.515625 17.6875 6.417969 17.628906 6.378906 Z M 17.628906 6.378906 " fill-opacity="1" fill-rule="nonzero"/><path fill="#cb6ce6" d="M 17.777344 5.128906 C 16.988281 4.699219 15.988281 4.644531 15.214844 5.144531 C 14.875 5.363281 14.585938 5.675781 14.417969 6.050781 C 14.324219 6.25 14.28125 6.464844 14.230469 6.679688 C 14.164062 6.9375 14.039062 7.21875 13.75 7.261719 C 13.679688 7.273438 13.707031 7.378906 13.78125 7.371094 C 14.242188 7.300781 14.3125 6.78125 14.410156 6.414062 C 14.515625 6.003906 14.757812 5.644531 15.085938 5.378906 C 15.839844 4.765625 16.898438 4.777344 17.726562 5.230469 C 17.785156 5.261719 17.84375 5.164062 17.777344 5.128906 Z M 17.777344 5.128906 " fill-opacity="1" fill-rule="nonzero"/><path fill="#cb6ce6" d="M 28.34375 3.253906 C 28.222656 2.539062 27.613281 2.054688 26.917969 1.988281 C 26.691406 1.96875 26.460938 1.96875 26.234375 1.984375 C 26.042969 1.996094 25.851562 2.039062 25.695312 2.15625 C 25.640625 2.199219 25.695312 2.296875 25.753906 2.253906 C 25.925781 2.121094 26.132812 2.097656 26.34375 2.09375 C 26.570312 2.085938 26.804688 2.082031 27.027344 2.117188 C 27.417969 2.175781 27.777344 2.386719 28.003906 2.710938 C 28.453125 3.347656 28.292969 4.550781 27.414062 4.722656 C 27.34375 4.738281 27.371094 4.84375 27.445312 4.832031 C 28.136719 4.699219 28.453125 3.894531 28.34375 3.253906 Z M 28.34375 3.253906 " fill-opacity="1" fill-rule="nonzero"/><path fill="#cb6ce6" d="M 26.101562 4.023438 C 26.015625 4.25 25.914062 4.511719 25.6875 4.640625 C 25.464844 4.761719 25.179688 4.730469 24.933594 4.699219 C 24.6875 4.660156 24.476562 4.570312 24.355469 4.332031 C 24.253906 4.132812 24.234375 3.898438 24.234375 3.675781 C 24.234375 3.601562 24.121094 3.601562 24.121094 3.675781 C 24.121094 3.925781 24.148438 4.195312 24.273438 4.421875 C 24.414062 4.667969 24.648438 4.769531 24.917969 4.808594 C 25.195312 4.847656 25.511719 4.878906 25.761719 4.726562 C 26.003906 4.578125 26.113281 4.304688 26.210938 4.054688 C 26.238281 3.984375 26.128906 3.953125 26.101562 4.023438 Z M 26.101562 4.023438 " fill-opacity="1" fill-rule="nonzero"/><path fill="#cb6ce6" d="M 19.789062 34.210938 C 19.410156 34.152344 19.273438 33.714844 19.171875 33.398438 C 19.03125 32.96875 18.90625 32.535156 18.796875 32.097656 C 18.578125 31.210938 18.421875 30.308594 18.328125 29.394531 C 18.320312 29.324219 18.210938 29.324219 18.21875 29.394531 C 18.316406 30.367188 18.484375 31.335938 18.726562 32.285156 C 18.847656 32.746094 18.972656 33.21875 19.144531 33.664062 C 19.253906 33.953125 19.429688 34.269531 19.761719 34.320312 C 19.828125 34.332031 19.859375 34.222656 19.789062 34.210938 Z M 19.789062 34.210938 " fill-opacity="1" fill-rule="nonzero"/><path fill="#cb6ce6" d="M 16.910156 31.253906 C 16.894531 31.183594 16.789062 31.210938 16.800781 31.28125 C 17.015625 32.242188 17.25 33.476562 16.390625 34.203125 C 16.335938 34.25 16.414062 34.328125 16.46875 34.28125 C 17.359375 33.527344 17.132812 32.25 16.910156 31.253906 Z M 16.910156 31.253906 " fill-opacity="1" fill-rule="nonzero"/><path fill="#cb6ce6" d="M 22.582031 27.738281 C 22.347656 29.046875 21.671875 30.25 20.679688 31.132812 C 20.625 31.183594 20.703125 31.261719 20.757812 31.210938 C 21.761719 30.320312 22.449219 29.09375 22.6875 27.765625 C 22.699219 27.695312 22.589844 27.667969 22.582031 27.738281 Z M 22.582031 27.738281 " fill-opacity="1" fill-rule="nonzero"/><path fill="#cb6ce6" d="M 9.800781 12.425781 C 9.738281 12.960938 9.226562 13.269531 8.730469 13.296875 C 8.238281 13.328125 7.664062 13.070312 7.648438 12.507812 C 7.644531 12.433594 7.53125 12.433594 7.535156 12.507812 C 7.550781 13.128906 8.171875 13.445312 8.730469 13.410156 C 9.292969 13.375 9.84375 13.027344 9.914062 12.425781 C 9.921875 12.355469 9.808594 12.355469 9.800781 12.425781 Z M 9.800781 12.425781 " fill-opacity="1" fill-rule="nonzero"/><path fill="#cb6ce6" d="M 9.488281 11.6875 C 9.289062 11.984375 8.921875 12.171875 8.566406 12.09375 C 8.226562 12.019531 7.960938 11.710938 7.953125 11.359375 C 7.949219 11.285156 7.839844 11.285156 7.84375 11.359375 C 7.851562 11.757812 8.148438 12.117188 8.539062 12.199219 C 8.945312 12.289062 9.359375 12.078125 9.582031 11.738281 C 9.621094 11.683594 9.523438 11.628906 9.488281 11.6875 Z M 9.488281 11.6875 " fill-opacity="1" fill-rule="nonzero"/><path fill="#cb6ce6" d="M 13.285156 11.191406 C 12.910156 10.910156 12.320312 11.054688 11.96875 11.308594 C 11.546875 11.609375 11.476562 12.125 11.425781 12.609375 C 11.371094 13.152344 11.355469 13.734375 11.648438 14.222656 C 11.96875 14.753906 12.53125 14.867188 13.105469 14.898438 C 13.175781 14.90625 13.175781 14.792969 13.105469 14.789062 C 12.648438 14.757812 12.171875 14.699219 11.859375 14.324219 C 11.550781 13.953125 11.492188 13.457031 11.511719 12.992188 C 11.53125 12.554688 11.546875 12.003906 11.804688 11.628906 C 12.050781 11.273438 12.632812 11.054688 13.046875 11.191406 C 13.632812 11.382812 13.578125 12.144531 13.523438 12.632812 C 13.515625 12.703125 13.625 12.703125 13.632812 12.632812 C 13.6875 12.140625 13.726562 11.527344 13.285156 11.191406 Z M 13.285156 11.191406 " fill-opacity="1" fill-rule="nonzero"/><path fill="#cb6ce6" d="M 14.5 13.824219 C 14.464844 13.714844 14.414062 13.605469 14.394531 13.488281 C 14.367188 13.332031 14.390625 13.175781 14.441406 13.023438 C 14.46875 12.957031 14.359375 12.925781 14.332031 12.992188 C 14.28125 13.148438 14.257812 13.308594 14.277344 13.46875 C 14.300781 13.644531 14.402344 13.804688 14.421875 13.984375 C 14.4375 14.105469 14.394531 14.234375 14.261719 14.269531 C 14.167969 14.296875 14.070312 14.269531 13.976562 14.246094 C 13.800781 14.203125 13.640625 14.195312 13.460938 14.21875 C 13.105469 14.261719 12.742188 14.300781 12.566406 13.917969 C 12.429688 13.625 12.414062 13.230469 12.65625 12.988281 C 12.707031 12.9375 12.628906 12.859375 12.578125 12.910156 C 12.328125 13.164062 12.3125 13.5625 12.433594 13.882812 C 12.492188 14.042969 12.582031 14.191406 12.726562 14.277344 C 12.886719 14.371094 13.082031 14.371094 13.261719 14.355469 C 13.378906 14.34375 13.496094 14.320312 13.617188 14.3125 C 13.75 14.308594 13.867188 14.335938 14 14.367188 C 14.15625 14.402344 14.34375 14.417969 14.457031 14.28125 C 14.566406 14.152344 14.546875 13.972656 14.5 13.824219 Z M 14.5 13.824219 " fill-opacity="1" fill-rule="nonzero"/><path fill="#cb6ce6" d="M 27.230469 18.597656 C 27.230469 18.59375 27.230469 18.589844 27.234375 18.585938 C 27.367188 18.277344 27.453125 17.820312 27.261719 17.519531 C 27.171875 17.371094 26.996094 17.292969 26.84375 17.230469 C 26.664062 17.160156 26.472656 17.113281 26.277344 17.101562 C 25.867188 17.070312 25.496094 17.199219 25.128906 17.367188 C 24.714844 17.558594 24.3125 17.769531 23.90625 17.984375 C 23.875 18.003906 23.875 18.035156 23.886719 18.0625 C 23.886719 18.070312 23.890625 18.078125 23.894531 18.085938 C 23.894531 18.105469 23.914062 18.125 23.945312 18.125 C 23.957031 18.121094 23.972656 18.121094 23.984375 18.117188 C 24.542969 18.21875 25.089844 18.363281 25.636719 18.511719 C 25.90625 18.585938 26.175781 18.660156 26.445312 18.734375 C 26.707031 18.808594 26.96875 18.898438 27.191406 19.058594 C 27.210938 19.074219 27.226562 19.074219 27.242188 19.0625 C 27.257812 19.058594 27.269531 19.046875 27.277344 19.027344 C 27.320312 18.886719 27.300781 18.75 27.242188 18.617188 C 27.234375 18.609375 27.230469 18.601562 27.230469 18.597656 Z M 24.949219 17.574219 C 25.28125 17.414062 25.617188 17.246094 25.988281 17.210938 C 26.332031 17.179688 26.695312 17.253906 26.992188 17.429688 C 27.339844 17.628906 27.292969 18.128906 27.164062 18.46875 C 27.113281 18.382812 27.054688 18.300781 26.988281 18.242188 C 26.859375 18.144531 26.757812 18.230469 26.617188 18.199219 C 26.464844 18.164062 26.359375 18.015625 26.21875 17.953125 C 26.089844 17.894531 25.941406 17.886719 25.800781 17.886719 C 25.597656 17.886719 25.390625 17.894531 25.1875 17.902344 C 24.839844 17.917969 24.492188 17.945312 24.144531 17.988281 C 24.410156 17.84375 24.679688 17.707031 24.949219 17.574219 Z M 25.71875 18.417969 C 25.265625 18.292969 24.808594 18.171875 24.351562 18.074219 C 24.558594 18.050781 24.765625 18.035156 24.972656 18.019531 C 25.304688 18 25.664062 17.957031 25.996094 18 C 26.152344 18.023438 26.257812 18.09375 26.382812 18.183594 C 26.460938 18.246094 26.550781 18.304688 26.65625 18.3125 C 26.734375 18.3125 26.816406 18.277344 26.890625 18.308594 C 26.957031 18.332031 27.007812 18.433594 27.042969 18.488281 C 27.125 18.621094 27.203125 18.765625 27.183594 18.917969 C 26.753906 18.640625 26.203125 18.550781 25.71875 18.417969 Z M 25.71875 18.417969 " fill-opacity="1" fill-rule="nonzero"/><path fill="#cb6ce6" d="M 26.351562 10.796875 C 26.328125 10.730469 26.21875 10.761719 26.242188 10.828125 C 26.402344 11.242188 26.605469 11.847656 26.175781 12.179688 C 26.121094 12.222656 26.175781 12.320312 26.230469 12.277344 C 26.707031 11.90625 26.53125 11.273438 26.351562 10.796875 Z M 26.351562 10.796875 " fill-opacity="1" fill-rule="nonzero"/></svg>