<svg xmlns="http://www.w3.org/2000/svg" xmlns:xlink="http://www.w3.org/1999/xlink" width="100" zoomAndPan="magnify" viewBox="0 0 75 37.5" height="50" preserveAspectRatio="xMidYMid meet" version="1.0"><defs><g/></defs><g fill="#cb6ce6" fill-opacity="1"><g transform="translate(3.147182, 14.607861)"><g><path d="M 8.34375 -2.828125 L 2.453125 -2.828125 L 1.1875 0 L 0.03125 0 L 4.859375 -10.5625 L 5.96875 -10.5625 L 10.796875 0 L 9.609375 0 Z M 7.9375 -3.734375 L 5.40625 -9.40625 L 2.875 -3.734375 Z M 7.9375 -3.734375 "/></g></g></g><g fill="#cb6ce6" fill-opacity="1"><g transform="translate(13.970194, 14.607861)"><g><path d="M 5.671875 -10.5625 C 7.023438 -10.5625 8.082031 -10.238281 8.84375 -9.59375 C 9.601562 -8.957031 9.984375 -8.070312 9.984375 -6.9375 C 9.984375 -5.8125 9.601562 -4.925781 8.84375 -4.28125 C 8.082031 -3.644531 7.023438 -3.328125 5.671875 -3.328125 L 2.84375 -3.328125 L 2.84375 0 L 1.71875 0 L 1.71875 -10.5625 Z M 5.640625 -4.3125 C 6.691406 -4.3125 7.492188 -4.539062 8.046875 -5 C 8.597656 -5.457031 8.875 -6.101562 8.875 -6.9375 C 8.875 -7.789062 8.597656 -8.445312 8.046875 -8.90625 C 7.492188 -9.363281 6.691406 -9.59375 5.640625 -9.59375 L 2.84375 -9.59375 L 2.84375 -4.3125 Z M 5.640625 -4.3125 "/></g></g></g><g fill="#cb6ce6" fill-opacity="1"><g transform="translate(24.808304, 14.607861)"><g><path d="M 6.34375 0.09375 C 5.289062 0.09375 4.335938 -0.140625 3.484375 -0.609375 C 2.640625 -1.078125 1.976562 -1.71875 1.5 -2.53125 C 1.019531 -3.351562 0.78125 -4.269531 0.78125 -5.28125 C 0.78125 -6.300781 1.019531 -7.21875 1.5 -8.03125 C 1.976562 -8.84375 2.640625 -9.484375 3.484375 -9.953125 C 4.335938 -10.421875 5.289062 -10.65625 6.34375 -10.65625 C 7.382812 -10.65625 8.328125 -10.421875 9.171875 -9.953125 C 10.015625 -9.492188 10.675781 -8.851562 11.15625 -8.03125 C 11.632812 -7.21875 11.875 -6.300781 11.875 -5.28125 C 11.875 -4.269531 11.632812 -3.351562 11.15625 -2.53125 C 10.675781 -1.707031 10.015625 -1.0625 9.171875 -0.59375 C 8.328125 -0.132812 7.382812 0.09375 6.34375 0.09375 Z M 6.34375 -0.90625 C 7.175781 -0.90625 7.925781 -1.09375 8.59375 -1.46875 C 9.269531 -1.84375 9.800781 -2.363281 10.1875 -3.03125 C 10.570312 -3.707031 10.765625 -4.457031 10.765625 -5.28125 C 10.765625 -6.101562 10.570312 -6.847656 10.1875 -7.515625 C 9.800781 -8.191406 9.269531 -8.71875 8.59375 -9.09375 C 7.925781 -9.46875 7.175781 -9.65625 6.34375 -9.65625 C 5.507812 -9.65625 4.75 -9.46875 4.0625 -9.09375 C 3.382812 -8.71875 2.851562 -8.191406 2.46875 -7.515625 C 2.082031 -6.847656 1.890625 -6.101562 1.890625 -5.28125 C 1.890625 -4.457031 2.082031 -3.707031 2.46875 -3.03125 C 2.851562 -2.363281 3.382812 -1.84375 4.0625 -1.46875 C 4.75 -1.09375 5.507812 -0.90625 6.34375 -0.90625 Z M 6.34375 -0.90625 "/></g></g></g><g fill="#cb6ce6" fill-opacity="1"><g transform="translate(37.472883, 14.607861)"><g><path d="M 1.71875 -10.5625 L 2.84375 -10.5625 L 2.84375 -0.96875 L 8.75 -0.96875 L 8.75 0 L 1.71875 0 Z M 1.71875 -10.5625 "/></g></g></g><g fill="#cb6ce6" fill-opacity="1"><g transform="translate(46.363754, 14.607861)"><g><path d="M 1.71875 -10.5625 L 2.84375 -10.5625 L 2.84375 -0.96875 L 8.75 -0.96875 L 8.75 0 L 1.71875 0 Z M 1.71875 -10.5625 "/></g></g></g><g fill="#cb6ce6" fill-opacity="1"><g transform="translate(55.254624, 14.607861)"><g><path d="M 6.34375 0.09375 C 5.289062 0.09375 4.335938 -0.140625 3.484375 -0.609375 C 2.640625 -1.078125 1.976562 -1.71875 1.5 -2.53125 C 1.019531 -3.351562 0.78125 -4.269531 0.78125 -5.28125 C 0.78125 -6.300781 1.019531 -7.21875 1.5 -8.03125 C 1.976562 -8.84375 2.640625 -9.484375 3.484375 -9.953125 C 4.335938 -10.421875 5.289062 -10.65625 6.34375 -10.65625 C 7.382812 -10.65625 8.328125 -10.421875 9.171875 -9.953125 C 10.015625 -9.492188 10.675781 -8.851562 11.15625 -8.03125 C 11.632812 -7.21875 11.875 -6.300781 11.875 -5.28125 C 11.875 -4.269531 11.632812 -3.351562 11.15625 -2.53125 C 10.675781 -1.707031 10.015625 -1.0625 9.171875 -0.59375 C 8.328125 -0.132812 7.382812 0.09375 6.34375 0.09375 Z M 6.34375 -0.90625 C 7.175781 -0.90625 7.925781 -1.09375 8.59375 -1.46875 C 9.269531 -1.84375 9.800781 -2.363281 10.1875 -3.03125 C 10.570312 -3.707031 10.765625 -4.457031 10.765625 -5.28125 C 10.765625 -6.101562 10.570312 -6.847656 10.1875 -7.515625 C 9.800781 -8.191406 9.269531 -8.71875 8.59375 -9.09375 C 7.925781 -9.46875 7.175781 -9.65625 6.34375 -9.65625 C 5.507812 -9.65625 4.75 -9.46875 4.0625 -9.09375 C 3.382812 -8.71875 2.851562 -8.191406 2.46875 -7.515625 C 2.082031 -6.847656 1.890625 -6.101562 1.890625 -5.28125 C 1.890625 -4.457031 2.082031 -3.707031 2.46875 -3.03125 C 2.851562 -2.363281 3.382812 -1.84375 4.0625 -1.46875 C 4.75 -1.09375 5.507812 -0.90625 6.34375 -0.90625 Z M 6.34375 -0.90625 "/></g></g></g><g fill="#cb6ce6" fill-opacity="1"><g transform="translate(67.908695, 14.607861)"><g/></g></g><g fill="#ffffff" fill-opacity="1"><g transform="translate(2.197671, 32.526836)"><g><path d="M 4.640625 0.09375 C 3.847656 0.09375 3.09375 -0.03125 2.375 -0.28125 C 1.65625 -0.539062 1.097656 -0.875 0.703125 -1.28125 L 1.140625 -2.140625 C 1.523438 -1.753906 2.035156 -1.441406 2.671875 -1.203125 C 3.304688 -0.972656 3.960938 -0.859375 4.640625 -0.859375 C 5.578125 -0.859375 6.28125 -1.03125 6.75 -1.375 C 7.226562 -1.726562 7.46875 -2.179688 7.46875 -2.734375 C 7.46875 -3.148438 7.335938 -3.484375 7.078125 -3.734375 C 6.828125 -3.992188 6.515625 -4.191406 6.140625 -4.328125 C 5.765625 -4.460938 5.25 -4.609375 4.59375 -4.765625 C 3.789062 -4.972656 3.15625 -5.164062 2.6875 -5.34375 C 2.21875 -5.53125 1.8125 -5.816406 1.46875 -6.203125 C 1.132812 -6.585938 0.96875 -7.109375 0.96875 -7.765625 C 0.96875 -8.296875 1.109375 -8.78125 1.390625 -9.21875 C 1.671875 -9.65625 2.101562 -10.003906 2.6875 -10.265625 C 3.269531 -10.523438 3.992188 -10.65625 4.859375 -10.65625 C 5.460938 -10.65625 6.050781 -10.570312 6.625 -10.40625 C 7.207031 -10.238281 7.710938 -10.007812 8.140625 -9.71875 L 7.765625 -8.828125 C 7.316406 -9.117188 6.835938 -9.335938 6.328125 -9.484375 C 5.828125 -9.628906 5.335938 -9.703125 4.859375 -9.703125 C 3.929688 -9.703125 3.234375 -9.523438 2.765625 -9.171875 C 2.296875 -8.816406 2.0625 -8.351562 2.0625 -7.78125 C 2.0625 -7.363281 2.191406 -7.023438 2.453125 -6.765625 C 2.710938 -6.515625 3.035156 -6.320312 3.421875 -6.1875 C 3.804688 -6.050781 4.328125 -5.898438 4.984375 -5.734375 C 5.753906 -5.546875 6.378906 -5.359375 6.859375 -5.171875 C 7.335938 -4.984375 7.742188 -4.703125 8.078125 -4.328125 C 8.410156 -3.953125 8.578125 -3.441406 8.578125 -2.796875 C 8.578125 -2.265625 8.429688 -1.773438 8.140625 -1.328125 C 7.859375 -0.890625 7.421875 -0.539062 6.828125 -0.28125 C 6.234375 -0.03125 5.503906 0.09375 4.640625 0.09375 Z M 4.640625 0.09375 "/></g></g></g><g fill="#ffffff" fill-opacity="1"><g transform="translate(11.481009, 32.526836)"><g><path d="M 5.34375 -3.65625 L 5.34375 0 L 4.234375 0 L 4.234375 -3.65625 L 0.015625 -10.5625 L 1.203125 -10.5625 L 4.828125 -4.640625 L 8.453125 -10.5625 L 9.5625 -10.5625 Z M 5.34375 -3.65625 "/></g></g></g><g fill="#ffffff" fill-opacity="1"><g transform="translate(21.06624, 32.526836)"><g><path d="M 4.640625 0.09375 C 3.847656 0.09375 3.09375 -0.03125 2.375 -0.28125 C 1.65625 -0.539062 1.097656 -0.875 0.703125 -1.28125 L 1.140625 -2.140625 C 1.523438 -1.753906 2.035156 -1.441406 2.671875 -1.203125 C 3.304688 -0.972656 3.960938 -0.859375 4.640625 -0.859375 C 5.578125 -0.859375 6.28125 -1.03125 6.75 -1.375 C 7.226562 -1.726562 7.46875 -2.179688 7.46875 -2.734375 C 7.46875 -3.148438 7.335938 -3.484375 7.078125 -3.734375 C 6.828125 -3.992188 6.515625 -4.191406 6.140625 -4.328125 C 5.765625 -4.460938 5.25 -4.609375 4.59375 -4.765625 C 3.789062 -4.972656 3.15625 -5.164062 2.6875 -5.34375 C 2.21875 -5.53125 1.8125 -5.816406 1.46875 -6.203125 C 1.132812 -6.585938 0.96875 -7.109375 0.96875 -7.765625 C 0.96875 -8.296875 1.109375 -8.78125 1.390625 -9.21875 C 1.671875 -9.65625 2.101562 -10.003906 2.6875 -10.265625 C 3.269531 -10.523438 3.992188 -10.65625 4.859375 -10.65625 C 5.460938 -10.65625 6.050781 -10.570312 6.625 -10.40625 C 7.207031 -10.238281 7.710938 -10.007812 8.140625 -9.71875 L 7.765625 -8.828125 C 7.316406 -9.117188 6.835938 -9.335938 6.328125 -9.484375 C 5.828125 -9.628906 5.335938 -9.703125 4.859375 -9.703125 C 3.929688 -9.703125 3.234375 -9.523438 2.765625 -9.171875 C 2.296875 -8.816406 2.0625 -8.351562 2.0625 -7.78125 C 2.0625 -7.363281 2.191406 -7.023438 2.453125 -6.765625 C 2.710938 -6.515625 3.035156 -6.320312 3.421875 -6.1875 C 3.804688 -6.050781 4.328125 -5.898438 4.984375 -5.734375 C 5.753906 -5.546875 6.378906 -5.359375 6.859375 -5.171875 C 7.335938 -4.984375 7.742188 -4.703125 8.078125 -4.328125 C 8.410156 -3.953125 8.578125 -3.441406 8.578125 -2.796875 C 8.578125 -2.265625 8.429688 -1.773438 8.140625 -1.328125 C 7.859375 -0.890625 7.421875 -0.539062 6.828125 -0.28125 C 6.234375 -0.03125 5.503906 0.09375 4.640625 0.09375 Z M 4.640625 0.09375 "/></g></g></g><g fill="#ffffff" fill-opacity="1"><g transform="translate(30.349578, 32.526836)"><g><path d="M 3.78125 -9.59375 L 0.0625 -9.59375 L 0.0625 -10.5625 L 8.609375 -10.5625 L 8.609375 -9.59375 L 4.890625 -9.59375 L 4.890625 0 L 3.78125 0 Z M 3.78125 -9.59375 "/></g></g></g><g fill="#ffffff" fill-opacity="1"><g transform="translate(39.01402, 32.526836)"><g><path d="M 9.1875 -0.96875 L 9.1875 0 L 1.71875 0 L 1.71875 -10.5625 L 8.96875 -10.5625 L 8.96875 -9.59375 L 2.84375 -9.59375 L 2.84375 -5.84375 L 8.296875 -5.84375 L 8.296875 -4.890625 L 2.84375 -4.890625 L 2.84375 -0.96875 Z M 9.1875 -0.96875 "/></g></g></g><g fill="#ffffff" fill-opacity="1"><g transform="translate(49.112476, 32.526836)"><g><path d="M 12.6875 -10.5625 L 12.6875 0 L 11.625 0 L 11.625 -8.453125 L 7.46875 -1.34375 L 6.9375 -1.34375 L 2.796875 -8.40625 L 2.796875 0 L 1.71875 0 L 1.71875 -10.5625 L 2.640625 -10.5625 L 7.234375 -2.734375 L 11.765625 -10.5625 Z M 12.6875 -10.5625 "/></g></g></g><g fill="#ffffff" fill-opacity="1"><g transform="translate(63.52806, 32.526836)"><g><path d="M 4.640625 0.09375 C 3.847656 0.09375 3.09375 -0.03125 2.375 -0.28125 C 1.65625 -0.539062 1.097656 -0.875 0.703125 -1.28125 L 1.140625 -2.140625 C 1.523438 -1.753906 2.035156 -1.441406 2.671875 -1.203125 C 3.304688 -0.972656 3.960938 -0.859375 4.640625 -0.859375 C 5.578125 -0.859375 6.28125 -1.03125 6.75 -1.375 C 7.226562 -1.726562 7.46875 -2.179688 7.46875 -2.734375 C 7.46875 -3.148438 7.335938 -3.484375 7.078125 -3.734375 C 6.828125 -3.992188 6.515625 -4.191406 6.140625 -4.328125 C 5.765625 -4.460938 5.25 -4.609375 4.59375 -4.765625 C 3.789062 -4.972656 3.15625 -5.164062 2.6875 -5.34375 C 2.21875 -5.53125 1.8125 -5.816406 1.46875 -6.203125 C 1.132812 -6.585938 0.96875 -7.109375 0.96875 -7.765625 C 0.96875 -8.296875 1.109375 -8.78125 1.390625 -9.21875 C 1.671875 -9.65625 2.101562 -10.003906 2.6875 -10.265625 C 3.269531 -10.523438 3.992188 -10.65625 4.859375 -10.65625 C 5.460938 -10.65625 6.050781 -10.570312 6.625 -10.40625 C 7.207031 -10.238281 7.710938 -10.007812 8.140625 -9.71875 L 7.765625 -8.828125 C 7.316406 -9.117188 6.835938 -9.335938 6.328125 -9.484375 C 5.828125 -9.628906 5.335938 -9.703125 4.859375 -9.703125 C 3.929688 -9.703125 3.234375 -9.523438 2.765625 -9.171875 C 2.296875 -8.816406 2.0625 -8.351562 2.0625 -7.78125 C 2.0625 -7.363281 2.191406 -7.023438 2.453125 -6.765625 C 2.710938 -6.515625 3.035156 -6.320312 3.421875 -6.1875 C 3.804688 -6.050781 4.328125 -5.898438 4.984375 -5.734375 C 5.753906 -5.546875 6.378906 -5.359375 6.859375 -5.171875 C 7.335938 -4.984375 7.742188 -4.703125 8.078125 -4.328125 C 8.410156 -3.953125 8.578125 -3.441406 8.578125 -2.796875 C 8.578125 -2.265625 8.429688 -1.773438 8.140625 -1.328125 C 7.859375 -0.890625 7.421875 -0.539062 6.828125 -0.28125 C 6.234375 -0.03125 5.503906 0.09375 4.640625 0.09375 Z M 4.640625 0.09375 "/></g></g></g></svg>