<svg xmlns="http://www.w3.org/2000/svg" xmlns:xlink="http://www.w3.org/1999/xlink" width="500" zoomAndPan="magnify" viewBox="0 0 375 374.999991" height="500" preserveAspectRatio="xMidYMid meet" version="1.0"><defs><g/><clipPath id="id1"><path d="M 120.0625 32.242188 L 255 32.242188 L 255 241 L 120.0625 241 Z M 120.0625 32.242188 " clip-rule="nonzero"/></clipPath></defs><g fill="#ffffff" fill-opacity="1"><g transform="translate(76.00977, 279.91129)"><g><path d="M 20.609375 -4.96875 L 8.8125 -4.96875 L 6.859375 0 L -0.1875 0 L 11.4375 -26.953125 L 18.484375 -26.953125 L 29.84375 0 L 22.53125 0 Z M 18.609375 -10.171875 L 14.75 -20.140625 L 10.828125 -10.171875 Z M 18.609375 -10.171875 "/></g></g></g><g fill="#ffffff" fill-opacity="1"><g transform="translate(118.063097, 279.91129)"><g><path d="M 2.703125 -26.953125 L 14.4375 -26.953125 C 17.882812 -26.953125 20.554688 -26.132812 22.453125 -24.5 C 24.359375 -22.875 25.3125 -20.5625 25.3125 -17.5625 C 25.3125 -14.40625 24.359375 -11.953125 22.453125 -10.203125 C 20.554688 -8.460938 17.882812 -7.59375 14.4375 -7.59375 L 9.546875 -7.59375 L 9.546875 0 L 2.703125 0 Z M 9.546875 -21.5625 L 9.546875 -12.984375 L 14.09375 -12.984375 C 15.613281 -12.984375 16.78125 -13.351562 17.59375 -14.09375 C 18.414062 -14.84375 18.828125 -15.921875 18.828125 -17.328125 C 18.828125 -18.710938 18.414062 -19.765625 17.59375 -20.484375 C 16.78125 -21.203125 15.613281 -21.5625 14.09375 -21.5625 Z M 9.546875 -21.5625 "/></g></g></g><g fill="#ffffff" fill-opacity="1"><g transform="translate(156.650718, 279.91129)"><g><path d="M 15.484375 -27.1875 C 19.671875 -27.1875 23.148438 -25.882812 25.921875 -23.28125 C 28.691406 -20.675781 30.078125 -17.421875 30.078125 -13.515625 C 30.078125 -9.585938 28.679688 -6.300781 25.890625 -3.65625 C 23.109375 -1.007812 19.640625 0.3125 15.484375 0.3125 C 11.328125 0.3125 7.859375 -1.003906 5.078125 -3.640625 C 2.304688 -6.273438 0.921875 -9.566406 0.921875 -13.515625 C 0.921875 -17.441406 2.304688 -20.703125 5.078125 -23.296875 C 7.859375 -25.890625 11.328125 -27.1875 15.484375 -27.1875 Z M 15.5625 -21.453125 C 13.457031 -21.453125 11.660156 -20.6875 10.171875 -19.15625 C 8.679688 -17.632812 7.9375 -15.742188 7.9375 -13.484375 C 7.9375 -11.222656 8.6875 -9.316406 10.1875 -7.765625 C 11.6875 -6.210938 13.476562 -5.4375 15.5625 -5.4375 C 17.644531 -5.4375 19.410156 -6.210938 20.859375 -7.765625 C 22.304688 -9.316406 23.03125 -11.222656 23.03125 -13.484375 C 23.03125 -15.742188 22.304688 -17.632812 20.859375 -19.15625 C 19.410156 -20.6875 17.644531 -21.453125 15.5625 -21.453125 Z M 15.5625 -21.453125 "/></g></g></g><g fill="#ffffff" fill-opacity="1"><g transform="translate(200.051816, 279.91129)"><g><path d="M 9.546875 -5.734375 L 20.984375 -5.734375 L 20.984375 0 L 2.703125 0 L 2.703125 -26.953125 L 9.546875 -26.953125 Z M 9.546875 -5.734375 "/></g></g></g><g fill="#ffffff" fill-opacity="1"><g transform="translate(234.018507, 279.91129)"><g><path d="M 9.546875 -5.734375 L 20.984375 -5.734375 L 20.984375 0 L 2.703125 0 L 2.703125 -26.953125 L 9.546875 -26.953125 Z M 9.546875 -5.734375 "/></g></g></g><g fill="#ffffff" fill-opacity="1"><g transform="translate(267.985199, 279.91129)"><g><path d="M 15.484375 -27.1875 C 19.671875 -27.1875 23.148438 -25.882812 25.921875 -23.28125 C 28.691406 -20.675781 30.078125 -17.421875 30.078125 -13.515625 C 30.078125 -9.585938 28.679688 -6.300781 25.890625 -3.65625 C 23.109375 -1.007812 19.640625 0.3125 15.484375 0.3125 C 11.328125 0.3125 7.859375 -1.003906 5.078125 -3.640625 C 2.304688 -6.273438 0.921875 -9.566406 0.921875 -13.515625 C 0.921875 -17.441406 2.304688 -20.703125 5.078125 -23.296875 C 7.859375 -25.890625 11.328125 -27.1875 15.484375 -27.1875 Z M 15.5625 -21.453125 C 13.457031 -21.453125 11.660156 -20.6875 10.171875 -19.15625 C 8.679688 -17.632812 7.9375 -15.742188 7.9375 -13.484375 C 7.9375 -11.222656 8.6875 -9.316406 10.1875 -7.765625 C 11.6875 -6.210938 13.476562 -5.4375 15.5625 -5.4375 C 17.644531 -5.4375 19.410156 -6.210938 20.859375 -7.765625 C 22.304688 -9.316406 23.03125 -11.222656 23.03125 -13.484375 C 23.03125 -15.742188 22.304688 -17.632812 20.859375 -19.15625 C 19.410156 -20.6875 17.644531 -21.453125 15.5625 -21.453125 Z M 15.5625 -21.453125 "/></g></g></g><g fill="#ffffff" fill-opacity="1"><g transform="translate(138.692478, 309.777431)"><g><path d="M 4.90625 -10.25 C 6.425781 -10.25 7.757812 -9.875 8.90625 -9.125 L 7.9375 -7.109375 C 7.40625 -7.421875 6.832031 -7.675781 6.21875 -7.875 C 5.613281 -8.070312 5.101562 -8.171875 4.6875 -8.171875 C 3.945312 -8.171875 3.578125 -7.925781 3.578125 -7.4375 C 3.578125 -7.113281 3.757812 -6.851562 4.125 -6.65625 C 4.488281 -6.46875 4.929688 -6.300781 5.453125 -6.15625 C 5.984375 -6.019531 6.515625 -5.851562 7.046875 -5.65625 C 7.578125 -5.457031 8.023438 -5.132812 8.390625 -4.6875 C 8.753906 -4.25 8.9375 -3.691406 8.9375 -3.015625 C 8.9375 -2.035156 8.550781 -1.269531 7.78125 -0.71875 C 7.019531 -0.175781 6.050781 0.09375 4.875 0.09375 C 4.039062 0.09375 3.210938 -0.0507812 2.390625 -0.34375 C 1.566406 -0.632812 0.851562 -1.03125 0.25 -1.53125 L 1.25 -3.515625 C 1.757812 -3.078125 2.359375 -2.710938 3.046875 -2.421875 C 3.742188 -2.140625 4.363281 -2 4.90625 -2 C 5.320312 -2 5.644531 -2.070312 5.875 -2.21875 C 6.113281 -2.375 6.234375 -2.59375 6.234375 -2.875 C 6.234375 -3.15625 6.097656 -3.390625 5.828125 -3.578125 C 5.566406 -3.773438 5.238281 -3.914062 4.84375 -4 C 4.445312 -4.09375 4.015625 -4.21875 3.546875 -4.375 C 3.085938 -4.53125 2.660156 -4.695312 2.265625 -4.875 C 1.867188 -5.0625 1.535156 -5.351562 1.265625 -5.75 C 1.003906 -6.15625 0.875 -6.640625 0.875 -7.203125 C 0.875 -8.128906 1.238281 -8.867188 1.96875 -9.421875 C 2.707031 -9.972656 3.6875 -10.25 4.90625 -10.25 Z M 4.90625 -10.25 "/></g></g></g><g fill="#ffffff" fill-opacity="1"><g transform="translate(152.686891, 309.777431)"><g><path d="M 6.25 -3.28125 L 6.25 0 L 3.671875 0 L 3.671875 -3.203125 L -0.078125 -10.140625 L 2.5 -10.140625 L 4.953125 -5.71875 L 7.34375 -10.140625 L 9.921875 -10.140625 Z M 6.25 -3.28125 "/></g></g></g><g fill="#ffffff" fill-opacity="1"><g transform="translate(167.202731, 309.777431)"><g><path d="M 4.90625 -10.25 C 6.425781 -10.25 7.757812 -9.875 8.90625 -9.125 L 7.9375 -7.109375 C 7.40625 -7.421875 6.832031 -7.675781 6.21875 -7.875 C 5.613281 -8.070312 5.101562 -8.171875 4.6875 -8.171875 C 3.945312 -8.171875 3.578125 -7.925781 3.578125 -7.4375 C 3.578125 -7.113281 3.757812 -6.851562 4.125 -6.65625 C 4.488281 -6.46875 4.929688 -6.300781 5.453125 -6.15625 C 5.984375 -6.019531 6.515625 -5.851562 7.046875 -5.65625 C 7.578125 -5.457031 8.023438 -5.132812 8.390625 -4.6875 C 8.753906 -4.25 8.9375 -3.691406 8.9375 -3.015625 C 8.9375 -2.035156 8.550781 -1.269531 7.78125 -0.71875 C 7.019531 -0.175781 6.050781 0.09375 4.875 0.09375 C 4.039062 0.09375 3.210938 -0.0507812 2.390625 -0.34375 C 1.566406 -0.632812 0.851562 -1.03125 0.25 -1.53125 L 1.25 -3.515625 C 1.757812 -3.078125 2.359375 -2.710938 3.046875 -2.421875 C 3.742188 -2.140625 4.363281 -2 4.90625 -2 C 5.320312 -2 5.644531 -2.070312 5.875 -2.21875 C 6.113281 -2.375 6.234375 -2.59375 6.234375 -2.875 C 6.234375 -3.15625 6.097656 -3.390625 5.828125 -3.578125 C 5.566406 -3.773438 5.238281 -3.914062 4.84375 -4 C 4.445312 -4.09375 4.015625 -4.21875 3.546875 -4.375 C 3.085938 -4.53125 2.660156 -4.695312 2.265625 -4.875 C 1.867188 -5.0625 1.535156 -5.351562 1.265625 -5.75 C 1.003906 -6.15625 0.875 -6.640625 0.875 -7.203125 C 0.875 -8.128906 1.238281 -8.867188 1.96875 -9.421875 C 2.707031 -9.972656 3.6875 -10.25 4.90625 -10.25 Z M 4.90625 -10.25 "/></g></g></g><g fill="#ffffff" fill-opacity="1"><g transform="translate(181.197143, 309.777431)"><g><path d="M 8.765625 -8.0625 L 5.703125 -8.0625 L 5.703125 0 L 3.125 0 L 3.125 -8.0625 L 0.09375 -8.0625 L 0.09375 -10.15625 L 8.765625 -10.15625 Z M 8.765625 -8.0625 "/></g></g></g><g fill="#ffffff" fill-opacity="1"><g transform="translate(194.71357, 309.777431)"><g><path d="M 8.953125 -8.109375 L 3.59375 -8.109375 L 3.59375 -6.09375 L 8.4375 -6.09375 L 8.4375 -4.0625 L 3.59375 -4.0625 L 3.59375 -2.03125 L 9.109375 -2.03125 L 9.109375 0 L 1.015625 0 L 1.015625 -10.140625 L 8.953125 -10.140625 Z M 8.953125 -8.109375 "/></g></g></g><g fill="#ffffff" fill-opacity="1"><g transform="translate(209.142504, 309.777431)"><g><path d="M 12.15625 0 L 9.875 0 L 9.859375 -6.59375 L 7.4375 -1.015625 L 5.75 -1.015625 L 3.3125 -6.59375 L 3.3125 0 L 1.015625 0 L 1.015625 -10.15625 L 3.84375 -10.15625 L 6.59375 -4.109375 L 9.34375 -10.15625 L 12.15625 -10.15625 Z M 12.15625 0 "/></g></g></g><g fill="#ffffff" fill-opacity="1"><g transform="translate(226.98973, 309.777431)"><g><path d="M 4.90625 -10.25 C 6.425781 -10.25 7.757812 -9.875 8.90625 -9.125 L 7.9375 -7.109375 C 7.40625 -7.421875 6.832031 -7.675781 6.21875 -7.875 C 5.613281 -8.070312 5.101562 -8.171875 4.6875 -8.171875 C 3.945312 -8.171875 3.578125 -7.925781 3.578125 -7.4375 C 3.578125 -7.113281 3.757812 -6.851562 4.125 -6.65625 C 4.488281 -6.46875 4.929688 -6.300781 5.453125 -6.15625 C 5.984375 -6.019531 6.515625 -5.851562 7.046875 -5.65625 C 7.578125 -5.457031 8.023438 -5.132812 8.390625 -4.6875 C 8.753906 -4.25 8.9375 -3.691406 8.9375 -3.015625 C 8.9375 -2.035156 8.550781 -1.269531 7.78125 -0.71875 C 7.019531 -0.175781 6.050781 0.09375 4.875 0.09375 C 4.039062 0.09375 3.210938 -0.0507812 2.390625 -0.34375 C 1.566406 -0.632812 0.851562 -1.03125 0.25 -1.53125 L 1.25 -3.515625 C 1.757812 -3.078125 2.359375 -2.710938 3.046875 -2.421875 C 3.742188 -2.140625 4.363281 -2 4.90625 -2 C 5.320312 -2 5.644531 -2.070312 5.875 -2.21875 C 6.113281 -2.375 6.234375 -2.59375 6.234375 -2.875 C 6.234375 -3.15625 6.097656 -3.390625 5.828125 -3.578125 C 5.566406 -3.773438 5.238281 -3.914062 4.84375 -4 C 4.445312 -4.09375 4.015625 -4.21875 3.546875 -4.375 C 3.085938 -4.53125 2.660156 -4.695312 2.265625 -4.875 C 1.867188 -5.0625 1.535156 -5.351562 1.265625 -5.75 C 1.003906 -6.15625 0.875 -6.640625 0.875 -7.203125 C 0.875 -8.128906 1.238281 -8.867188 1.96875 -9.421875 C 2.707031 -9.972656 3.6875 -10.25 4.90625 -10.25 Z M 4.90625 -10.25 "/></g></g></g><g fill="#ffffff" fill-opacity="1"><g transform="translate(82.832395, 195.686135)"><g><path d="M 8.953125 -8.109375 L 3.59375 -8.109375 L 3.59375 -6.09375 L 8.4375 -6.09375 L 8.4375 -4.0625 L 3.59375 -4.0625 L 3.59375 -2.03125 L 9.109375 -2.03125 L 9.109375 0 L 1.015625 0 L 1.015625 -10.140625 L 8.953125 -10.140625 Z M 8.953125 -8.109375 "/></g></g></g><g fill="#ffffff" fill-opacity="1"><g transform="translate(97.261328, 195.686135)"><g><path d="M 4.90625 -10.25 C 6.425781 -10.25 7.757812 -9.875 8.90625 -9.125 L 7.9375 -7.109375 C 7.40625 -7.421875 6.832031 -7.675781 6.21875 -7.875 C 5.613281 -8.070312 5.101562 -8.171875 4.6875 -8.171875 C 3.945312 -8.171875 3.578125 -7.925781 3.578125 -7.4375 C 3.578125 -7.113281 3.757812 -6.851562 4.125 -6.65625 C 4.488281 -6.46875 4.929688 -6.300781 5.453125 -6.15625 C 5.984375 -6.019531 6.515625 -5.851562 7.046875 -5.65625 C 7.578125 -5.457031 8.023438 -5.132812 8.390625 -4.6875 C 8.753906 -4.25 8.9375 -3.691406 8.9375 -3.015625 C 8.9375 -2.035156 8.550781 -1.269531 7.78125 -0.71875 C 7.019531 -0.175781 6.050781 0.09375 4.875 0.09375 C 4.039062 0.09375 3.210938 -0.0507812 2.390625 -0.34375 C 1.566406 -0.632812 0.851562 -1.03125 0.25 -1.53125 L 1.25 -3.515625 C 1.757812 -3.078125 2.359375 -2.710938 3.046875 -2.421875 C 3.742188 -2.140625 4.363281 -2 4.90625 -2 C 5.320312 -2 5.644531 -2.070312 5.875 -2.21875 C 6.113281 -2.375 6.234375 -2.59375 6.234375 -2.875 C 6.234375 -3.15625 6.097656 -3.390625 5.828125 -3.578125 C 5.566406 -3.773438 5.238281 -3.914062 4.84375 -4 C 4.445312 -4.09375 4.015625 -4.21875 3.546875 -4.375 C 3.085938 -4.53125 2.660156 -4.695312 2.265625 -4.875 C 1.867188 -5.0625 1.535156 -5.351562 1.265625 -5.75 C 1.003906 -6.15625 0.875 -6.640625 0.875 -7.203125 C 0.875 -8.128906 1.238281 -8.867188 1.96875 -9.421875 C 2.707031 -9.972656 3.6875 -10.25 4.90625 -10.25 Z M 4.90625 -10.25 "/></g></g></g><g fill="#ffffff" fill-opacity="1"><g transform="translate(81.965207, 215.936134)"><g><path d="M 8.765625 -8.0625 L 5.703125 -8.0625 L 5.703125 0 L 3.125 0 L 3.125 -8.0625 L 0.09375 -8.0625 L 0.09375 -10.15625 L 8.765625 -10.15625 Z M 8.765625 -8.0625 "/></g></g></g><g fill="#ffffff" fill-opacity="1"><g transform="translate(95.481634, 215.936134)"><g><path d="M 1.015625 -10.140625 L 5.375 -10.140625 C 6.96875 -10.140625 8.265625 -9.671875 9.265625 -8.734375 C 10.265625 -7.796875 10.765625 -6.570312 10.765625 -5.0625 C 10.765625 -3.570312 10.253906 -2.351562 9.234375 -1.40625 C 8.222656 -0.46875 6.898438 0 5.265625 0 L 1.015625 0 Z M 3.59375 -8.078125 L 3.59375 -2.0625 L 5.4375 -2.0625 C 6.226562 -2.0625 6.875 -2.335938 7.375 -2.890625 C 7.882812 -3.441406 8.140625 -4.160156 8.140625 -5.046875 C 8.140625 -5.941406 7.875 -6.671875 7.34375 -7.234375 C 6.8125 -7.796875 6.132812 -8.078125 5.3125 -8.078125 Z M 3.59375 -8.078125 "/></g></g></g><g fill="#ffffff" fill-opacity="1"><g transform="translate(268.405446, 195.686135)"><g><path d="M 4.4375 -10.25 C 5.445312 -10.25 6.273438 -10.003906 6.921875 -9.515625 C 7.566406 -9.035156 7.890625 -8.398438 7.890625 -7.609375 C 7.890625 -6.660156 7.253906 -5.535156 5.984375 -4.234375 L 3.921875 -2.046875 L 8.203125 -2.046875 L 8.203125 0 L 0.609375 0 L 0.609375 -1.671875 L 4.234375 -5.5 C 4.878906 -6.175781 5.203125 -6.757812 5.203125 -7.25 C 5.203125 -7.53125 5.097656 -7.753906 4.890625 -7.921875 C 4.691406 -8.085938 4.414062 -8.171875 4.0625 -8.171875 C 3.21875 -8.171875 2.296875 -7.738281 1.296875 -6.875 L 0.3125 -8.734375 C 1.664062 -9.742188 3.039062 -10.25 4.4375 -10.25 Z M 4.4375 -10.25 "/></g></g></g><g fill="#ffffff" fill-opacity="1"><g transform="translate(281.762548, 195.686135)"><g><path d="M 5.09375 -10.21875 C 6.53125 -10.21875 7.632812 -9.773438 8.40625 -8.890625 C 9.1875 -8.003906 9.578125 -6.734375 9.578125 -5.078125 C 9.578125 -3.421875 9.1875 -2.144531 8.40625 -1.25 C 7.632812 -0.363281 6.53125 0.078125 5.09375 0.078125 C 3.644531 0.078125 2.53125 -0.363281 1.75 -1.25 C 0.976562 -2.144531 0.59375 -3.421875 0.59375 -5.078125 C 0.59375 -6.734375 0.976562 -8.003906 1.75 -8.890625 C 2.53125 -9.773438 3.644531 -10.21875 5.09375 -10.21875 Z M 5.09375 -8.34375 C 4.4375 -8.34375 3.960938 -8.085938 3.671875 -7.578125 C 3.390625 -7.078125 3.25 -6.242188 3.25 -5.078125 C 3.25 -3.921875 3.390625 -3.085938 3.671875 -2.578125 C 3.960938 -2.066406 4.4375 -1.8125 5.09375 -1.8125 C 5.726562 -1.8125 6.191406 -2.066406 6.484375 -2.578125 C 6.785156 -3.097656 6.9375 -3.929688 6.9375 -5.078125 C 6.9375 -6.234375 6.785156 -7.066406 6.484375 -7.578125 C 6.191406 -8.085938 5.726562 -8.34375 5.09375 -8.34375 Z M 5.09375 -8.34375 "/></g></g></g><g fill="#ffffff" fill-opacity="1"><g transform="translate(268.405446, 215.936134)"><g><path d="M 4.4375 -10.25 C 5.445312 -10.25 6.273438 -10.003906 6.921875 -9.515625 C 7.566406 -9.035156 7.890625 -8.398438 7.890625 -7.609375 C 7.890625 -6.660156 7.253906 -5.535156 5.984375 -4.234375 L 3.921875 -2.046875 L 8.203125 -2.046875 L 8.203125 0 L 0.609375 0 L 0.609375 -1.671875 L 4.234375 -5.5 C 4.878906 -6.175781 5.203125 -6.757812 5.203125 -7.25 C 5.203125 -7.53125 5.097656 -7.753906 4.890625 -7.921875 C 4.691406 -8.085938 4.414062 -8.171875 4.0625 -8.171875 C 3.21875 -8.171875 2.296875 -7.738281 1.296875 -6.875 L 0.3125 -8.734375 C 1.664062 -9.742188 3.039062 -10.25 4.4375 -10.25 Z M 4.4375 -10.25 "/></g></g></g><g fill="#ffffff" fill-opacity="1"><g transform="translate(281.762548, 215.936134)"><g><path d="M 4.546875 0 L 1.96875 0 L 1.96875 -8.078125 L 0.09375 -8.078125 L 0.09375 -10.15625 L 4.546875 -10.15625 Z M 4.546875 0 "/></g></g></g><path fill="#cb6ce6" d="M 220.148438 97.378906 C 219.269531 95.734375 220.367188 93.78125 219.644531 92.089844 C 218.957031 90.480469 217.152344 89.851562 215.523438 89.804688 C 211.398438 89.695312 207.402344 91.574219 203.828125 93.433594 C 203.78125 93.464844 203.734375 93.496094 203.71875 93.527344 C 203.527344 93.667969 203.511719 94.015625 203.8125 94.078125 C 206.648438 94.609375 209.296875 95.734375 212.027344 96.640625 C 214.441406 97.441406 217.246094 98.285156 219.816406 97.847656 C 220.039062 97.878906 220.304688 97.644531 220.148438 97.378906 Z M 211.679688 95.859375 C 209.390625 95.078125 207.148438 94.1875 204.78125 93.636719 C 207.949219 92.011719 211.351562 90.527344 214.957031 90.414062 C 216.949219 90.351562 219.160156 91.074219 219.300781 93.355469 C 219.378906 94.6875 218.972656 96 219.425781 97.253906 C 216.871094 97.628906 214.0625 96.6875 211.679688 95.859375 Z M 211.679688 95.859375 " fill-opacity="1" fill-rule="nonzero"/><path fill="#cb6ce6" d="M 227.859375 111.597656 C 225.632812 112.144531 223.847656 114.039062 223.535156 116.320312 C 223.21875 118.605469 224.441406 120.90625 226.433594 122.03125 C 226.777344 122.234375 227.109375 121.6875 226.746094 121.484375 C 224.976562 120.484375 223.863281 118.449219 224.144531 116.398438 C 224.425781 114.351562 226.042969 112.691406 228.015625 112.207031 C 228.425781 112.097656 228.253906 111.488281 227.859375 111.597656 Z M 227.859375 111.597656 " fill-opacity="1" fill-rule="nonzero"/><path fill="#cb6ce6" d="M 236.5 119.839844 C 236.105469 119.089844 235.339844 118.855469 234.570312 118.652344 C 233.628906 118.386719 232.65625 118.230469 231.671875 118.214844 C 230.382812 118.199219 227.828125 118.402344 227.515625 119.996094 C 227.4375 120.390625 228.046875 120.5625 228.125 120.167969 C 228.378906 118.871094 230.964844 118.808594 231.9375 118.839844 C 233.003906 118.886719 235.402344 119.074219 235.949219 120.152344 C 236.136719 120.515625 236.6875 120.183594 236.5 119.839844 Z M 236.5 119.839844 " fill-opacity="1" fill-rule="nonzero"/><path fill="#cb6ce6" d="M 222.34375 96.5625 C 221.667969 95.375 221.980469 94.015625 222.011719 92.714844 C 222.042969 91.636719 221.917969 90.542969 221.480469 89.554688 C 220.601562 87.585938 218.53125 86.644531 216.460938 86.503906 C 214.015625 86.332031 211.414062 87.003906 209.109375 87.742188 C 206.742188 88.507812 204.46875 89.585938 202.367188 90.917969 C 202.023438 91.136719 202.335938 91.667969 202.683594 91.464844 C 204.625 90.226562 206.695312 89.210938 208.875 88.476562 C 211.085938 87.726562 213.515625 87.097656 215.851562 87.097656 C 218.296875 87.113281 220.617188 88.210938 221.214844 90.746094 C 221.683594 92.761719 220.742188 95 221.792969 96.859375 C 221.996094 97.222656 222.546875 96.90625 222.34375 96.5625 Z M 222.34375 96.5625 " fill-opacity="1" fill-rule="nonzero"/><path fill="#cb6ce6" d="M 233.128906 144.324219 C 232.640625 142.929688 231.671875 141.757812 230.367188 141.054688 C 228.738281 140.175781 226.699219 140.222656 224.914062 140.414062 C 224.519531 140.460938 224.503906 141.085938 224.914062 141.039062 C 226.511719 140.882812 228.363281 140.789062 229.851562 141.492188 C 231.121094 142.085938 232.078125 143.179688 232.53125 144.496094 C 232.65625 144.871094 233.253906 144.714844 233.128906 144.324219 Z M 233.128906 144.324219 " fill-opacity="1" fill-rule="nonzero"/><path fill="#cb6ce6" d="M 214.691406 163.972656 C 211.835938 164.363281 209.015625 163.5625 206.304688 162.71875 C 203.90625 161.96875 201.554688 161.125 199.234375 160.183594 C 194.453125 158.230469 189.84375 155.851562 185.484375 153.082031 C 183.007812 151.519531 180.609375 149.8125 178.304688 148.015625 C 177.988281 147.765625 177.535156 148.203125 177.863281 148.453125 C 186.1875 154.976562 195.660156 160.011719 205.753906 163.203125 C 208.703125 164.144531 211.742188 165.003906 214.863281 164.582031 C 215.253906 164.519531 215.082031 163.910156 214.691406 163.972656 Z M 214.691406 163.972656 " fill-opacity="1" fill-rule="nonzero"/><path fill="#cb6ce6" d="M 231.703125 85.035156 C 230.730469 83.40625 229.175781 82.390625 227.453125 81.671875 C 225.351562 80.796875 223.078125 80.277344 220.882812 79.761719 C 218.453125 79.199219 215.960938 78.824219 213.453125 78.996094 C 211.070312 79.152344 208.71875 79.730469 206.476562 80.5625 C 203.890625 81.515625 201.445312 82.765625 199.0625 84.128906 C 198.714844 84.332031 199.027344 84.863281 199.375 84.675781 C 204.46875 81.765625 210.128906 79.214844 216.132812 79.636719 C 219.128906 79.839844 222.089844 80.671875 224.960938 81.5 C 227.328125 82.1875 229.820312 83.15625 231.136719 85.363281 C 231.371094 85.691406 231.90625 85.378906 231.703125 85.035156 Z M 231.703125 85.035156 " fill-opacity="1" fill-rule="nonzero"/><g clip-path="url(#id1)"><path fill="#cb6ce6" d="M 254.824219 203.015625 C 250.90625 201.234375 248.523438 197.480469 245.230469 194.851562 C 243.570312 193.519531 241.6875 192.550781 239.554688 192.238281 C 237.109375 191.878906 234.632812 192.316406 232.234375 192.863281 C 232.171875 192.816406 232.09375 192.800781 232 192.816406 C 230.621094 193.050781 229.113281 193.238281 228.0625 192.113281 C 227.34375 191.332031 227.046875 190.238281 226.824219 189.203125 C 226.277344 186.652344 225.839844 184.121094 225.085938 181.617188 C 224.332031 179.082031 223.390625 176.609375 222.308594 174.203125 C 221.761719 173.011719 221.183594 171.839844 220.570312 170.683594 C 219.910156 169.460938 218.894531 168.179688 218.972656 166.738281 C 219.003906 166.707031 219.050781 166.675781 219.066406 166.628906 C 220.867188 163.546875 224.695312 162.96875 227.765625 161.8125 C 230.699219 160.703125 232.847656 158.808594 233.910156 155.820312 C 234.398438 154.429688 234.632812 152.941406 234.726562 151.472656 C 234.835938 149.640625 234.585938 147.8125 235.183594 146.027344 C 235.761719 144.246094 236.4375 142.585938 236.796875 140.742188 C 237.15625 138.878906 237.550781 137.035156 238.082031 135.203125 C 239.195312 131.339844 240.589844 127.289062 239.460938 123.265625 C 239.664062 123.171875 239.871094 123.078125 240.074219 122.984375 C 241.15625 122.5 242.285156 122 243.066406 121.078125 C 244.398438 119.511719 244.527344 117.277344 244.101562 115.351562 C 243.539062 112.785156 241.9375 110.628906 241.046875 108.1875 C 240.714844 107.296875 240.480469 106.386719 240.246094 105.480469 C 242.707031 103.523438 244.730469 101.023438 246.109375 98.207031 C 246.816406 96.765625 247.363281 95.25 247.722656 93.683594 C 247.878906 93.027344 247.992188 92.371094 248.085938 91.699219 C 248.210938 90.714844 248.085938 89.460938 248.867188 88.710938 C 249.402344 88.210938 250.152344 87.992188 250.796875 87.664062 C 251.425781 87.351562 252.003906 86.941406 252.503906 86.441406 C 253.445312 85.503906 254.121094 84.269531 254.417969 82.96875 C 254.730469 81.609375 254.605469 80.214844 254.074219 78.917969 C 253.429688 77.355469 252.316406 75.945312 252.035156 74.242188 C 251.707031 72.253906 252.585938 70.21875 251.988281 68.25 C 251.628906 67.074219 250.859375 66.058594 249.667969 65.777344 C 250.136719 64.886719 250.359375 63.871094 250.199219 62.773438 C 250.703125 62.429688 251.15625 61.992188 251.488281 61.476562 C 252.347656 60.113281 251.863281 58.503906 252.207031 57.015625 C 252.378906 56.296875 252.664062 55.609375 252.742188 54.875 C 252.835938 54.109375 252.710938 53.339844 252.472656 52.621094 C 252.003906 51.121094 251.1875 49.617188 250.34375 48.289062 C 248.914062 46.035156 246.59375 44.550781 243.992188 44.207031 C 245.640625 43.328125 246.785156 41.546875 246.625 39.621094 C 246.421875 37.085938 244.382812 35.320312 241.921875 35.085938 C 240.292969 34.929688 238.679688 35.179688 237.0625 34.773438 C 235.574219 34.398438 234.179688 33.722656 232.75 33.175781 C 231.464844 32.691406 230.085938 32.300781 228.675781 32.347656 C 227.390625 32.394531 226.167969 32.816406 225.007812 33.316406 C 223.644531 33.910156 222.328125 34.648438 220.914062 35.132812 C 219.425781 35.648438 217.953125 35.757812 216.398438 35.445312 C 214.816406 35.117188 213.296875 34.523438 211.710938 34.164062 C 210.253906 33.832031 208.78125 33.800781 207.308594 33.992188 C 204.234375 34.398438 201.332031 35.585938 198.277344 36.054688 C 196.660156 36.304688 195.125 36.148438 193.496094 36.054688 C 192.742188 36.007812 191.972656 36.023438 191.222656 36.226562 C 190.421875 36.429688 189.730469 36.898438 188.964844 37.179688 C 185.921875 38.261719 182.738281 36.195312 179.621094 36.507812 C 176.796875 36.773438 174.335938 38.308594 171.875 39.574219 C 170.464844 40.292969 169.023438 40.921875 167.484375 41.28125 C 165.761719 41.6875 163.972656 41.8125 162.21875 42 C 159.441406 42.28125 156.558594 42.71875 154.175781 44.300781 C 153.109375 45.003906 152.230469 45.925781 151.589844 47.019531 C 151.210938 47.664062 150.898438 48.351562 150.445312 48.960938 C 149.894531 49.695312 149.160156 50.242188 148.40625 50.746094 C 145.726562 52.480469 142.980469 54.09375 140.441406 56.03125 C 135.644531 59.691406 131.394531 64.292969 129.3125 70.03125 C 128.824219 71.394531 128.464844 72.800781 128.261719 74.226562 C 128.039062 75.835938 128.058594 77.480469 127.945312 79.105469 C 127.835938 80.875 127.492188 82.53125 126.722656 84.144531 C 126.066406 85.550781 125.203125 86.863281 124.402344 88.195312 C 121.300781 93.339844 120.0625 99.332031 121.238281 105.277344 C 121.519531 106.746094 121.957031 108.1875 122.539062 109.5625 C 120.90625 113.144531 121.660156 117.542969 124.277344 120.46875 C 125.6875 122.03125 127.617188 122.703125 129.28125 123.925781 C 130.410156 124.738281 131.097656 125.878906 130.941406 127.304688 C 130.785156 128.789062 129.953125 130.054688 129.359375 131.386719 C 128.511719 133.277344 128.136719 136.1875 130.457031 137.238281 C 130.550781 137.285156 130.644531 137.269531 130.722656 137.238281 C 129.71875 139.785156 128.761719 142.414062 128.621094 145.167969 C 128.511719 147.1875 128.917969 149.53125 130.21875 151.160156 C 130.171875 151.207031 130.15625 151.269531 130.140625 151.347656 C 129.90625 154.164062 129.75 157.121094 130.925781 159.777344 C 131.410156 160.890625 132.132812 161.921875 133.089844 162.6875 C 134.171875 163.5625 135.394531 164.128906 136.128906 165.378906 C 136.820312 166.550781 137.085938 167.929688 137.386719 169.242188 C 137.699219 170.667969 138.074219 172.074219 138.546875 173.449219 C 139.421875 176.015625 140.675781 178.472656 142.464844 180.523438 C 144.296875 182.632812 146.699219 184.261719 149.425781 184.949219 C 149.488281 184.964844 149.535156 184.964844 149.582031 184.949219 C 149.628906 186.433594 149.660156 187.9375 149.707031 189.421875 C 149.785156 191.910156 149.847656 194.429688 149.535156 196.902344 C 148.46875 205.441406 141.945312 212.855469 134.9375 217.394531 C 131.113281 219.878906 126.847656 221.648438 122.382812 222.585938 C 122.367188 222.585938 122.207031 222.617188 122.160156 222.648438 C 121.972656 222.773438 121.816406 222.960938 121.816406 223.195312 C 121.816406 223.242188 121.832031 223.289062 121.863281 223.335938 C 121.347656 224.574219 120.953125 225.839844 120.734375 227.15625 C 120.515625 228.453125 120.734375 229.34375 121.707031 230.253906 C 123.699219 232.097656 126.238281 233.238281 128.777344 234.117188 C 134.75 236.164062 141.039062 237.511719 147.277344 238.386719 C 153.53125 239.261719 159.851562 239.621094 166.152344 239.433594 C 169.398438 239.339844 172.628906 239.105469 175.84375 238.714844 C 179.070312 238.339844 182.300781 237.683594 185.578125 237.792969 C 191.957031 238.011719 197.917969 241.4375 204.359375 240.8125 C 205.816406 240.921875 207.308594 240.8125 208.84375 240.453125 C 213.828125 239.246094 218.28125 236.179688 222.65625 233.648438 C 225.054688 232.253906 227.453125 230.878906 229.851562 229.484375 C 232.15625 228.15625 234.523438 226.859375 236.671875 225.261719 C 243.570312 220.066406 246.265625 211.433594 252.394531 205.566406 C 253.164062 204.832031 253.996094 204.144531 254.871094 203.535156 C 255 203.4375 255.0625 203.125 254.824219 203.015625 Z M 251.582031 69.703125 C 251.613281 71.363281 251.125 73.019531 251.488281 74.679688 C 251.816406 76.179688 252.726562 77.449219 253.351562 78.824219 C 253.996094 80.230469 254.152344 81.734375 253.710938 83.234375 C 253.320312 84.582031 252.472656 85.832031 251.3125 86.660156 C 250.3125 87.367188 248.882812 87.601562 248.132812 88.632812 C 247.753906 89.148438 247.660156 89.742188 247.597656 90.367188 C 247.519531 91.199219 247.441406 92.011719 247.285156 92.824219 C 247.003906 94.296875 246.546875 95.75 245.9375 97.128906 C 244.621094 100.113281 242.613281 102.757812 240.105469 104.824219 C 239.964844 104.261719 239.839844 103.679688 239.679688 103.117188 C 241.78125 101.617188 241.796875 99.003906 242.363281 96.71875 C 242.691406 95.375 243.476562 94.375 244.101562 93.167969 C 244.636719 92.136719 244.761719 91.105469 244.433594 89.992188 C 244.320312 89.617188 244.195312 89.273438 244.054688 88.914062 C 244.054688 88.851562 244.023438 88.789062 243.992188 88.742188 C 243.648438 87.867188 243.273438 87.019531 243.144531 86.050781 C 242.988281 84.847656 242.941406 83.6875 242.441406 82.5625 C 241.9375 81.453125 241.140625 80.449219 240.824219 79.261719 C 240.480469 77.917969 241.234375 76.570312 240.808594 75.242188 C 240.792969 75.210938 240.777344 75.179688 240.761719 75.148438 C 240.761719 75.132812 240.761719 75.117188 240.761719 75.101562 C 240.777344 73.644531 239.808594 72.566406 238.804688 71.644531 C 238.742188 71.582031 238.679688 71.535156 238.617188 71.472656 C 241.453125 71.269531 244.226562 70.421875 246.640625 68.921875 C 247.707031 68.25 248.695312 67.390625 249.371094 66.371094 C 250.890625 66.558594 251.566406 68.34375 251.582031 69.703125 Z M 239.492188 102.492188 C 239.289062 101.789062 239.054688 101.085938 238.742188 100.394531 C 238.097656 98.972656 237.328125 97.535156 237.171875 95.953125 C 237 94.25 237.675781 92.652344 238.316406 91.121094 C 238.316406 91.105469 238.332031 91.089844 238.332031 91.074219 C 238.347656 91.058594 238.363281 91.042969 238.363281 91.027344 C 239.382812 89.226562 241.484375 87.960938 243.414062 89.164062 C 243.914062 90.382812 244.210938 91.527344 243.585938 92.792969 C 243.097656 93.796875 242.378906 94.65625 242 95.71875 C 241.203125 97.910156 241.53125 100.882812 239.492188 102.492188 Z M 238.175781 70.863281 C 238.097656 70.863281 238.035156 70.894531 238.003906 70.925781 C 236.90625 69.953125 235.746094 69.0625 234.585938 68.171875 C 234.398438 68.015625 234.195312 67.875 234.007812 67.71875 C 234.023438 67.71875 234.023438 67.703125 234.039062 67.703125 C 235.464844 67.703125 236.765625 67.152344 238.019531 66.511719 C 239.320312 65.855469 240.402344 65.167969 241 63.789062 C 241.359375 62.960938 241.890625 61.585938 243.066406 62.273438 C 243.664062 62.632812 244.148438 63.070312 244.808594 63.335938 C 245.96875 63.804688 247.285156 63.886719 248.507812 63.554688 C 248.898438 63.445312 249.292969 63.304688 249.652344 63.117188 C 249.886719 65.699219 247.707031 67.609375 245.625 68.765625 C 243.335938 70.046875 240.777344 70.753906 238.175781 70.863281 Z M 139.125 173.277344 C 138.671875 171.980469 138.324219 170.652344 138.011719 169.304688 C 137.761719 168.164062 137.527344 167.007812 137.070312 165.910156 C 136.632812 164.863281 135.988281 164.003906 135.082031 163.328125 C 133.984375 162.515625 132.902344 161.875 132.132812 160.71875 C 130.375 158.058594 130.472656 154.773438 130.722656 151.722656 C 130.832031 151.832031 130.957031 151.941406 131.082031 152.035156 C 134.640625 154.773438 140.082031 154.257812 143.65625 151.738281 C 143.6875 151.738281 143.71875 151.738281 143.734375 151.738281 C 145.960938 151.238281 148.34375 151.378906 150.289062 152.628906 C 152.089844 153.804688 153.078125 155.726562 153.078125 157.855469 C 153.09375 161.875 150.195312 167.007812 145.664062 166.847656 C 145.253906 166.832031 145.253906 167.460938 145.664062 167.476562 C 146.902344 167.523438 148.03125 167.195312 149.019531 166.628906 C 149.003906 166.660156 149.003906 166.691406 149.003906 166.738281 C 149.144531 171.824219 149.300781 176.890625 149.441406 181.976562 C 149.457031 182.757812 149.488281 183.554688 149.503906 184.339844 C 144.21875 182.960938 140.832031 178.222656 139.125 173.277344 Z M 187.976562 237.433594 C 185.074219 237.011719 182.191406 237.277344 179.292969 237.667969 C 176.1875 238.089844 173.082031 238.464844 169.949219 238.652344 C 157.828125 239.433594 145.585938 238.199219 133.875 235.023438 C 130.785156 234.179688 127.601562 233.316406 124.796875 231.738281 C 124.136719 231.363281 123.496094 230.941406 122.882812 230.472656 C 122.304688 230.015625 121.519531 229.4375 121.285156 228.703125 C 121 227.828125 121.410156 226.683594 121.628906 225.824219 C 121.816406 225.121094 122.050781 224.449219 122.320312 223.777344 C 131.363281 228.359375 141.101562 231.535156 151.117188 233.128906 C 156.136719 233.929688 161.199219 234.351562 166.277344 234.351562 C 168.867188 234.351562 171.453125 234.257812 174.039062 234.054688 C 176.765625 233.851562 179.496094 233.570312 182.238281 233.710938 C 184.792969 233.835938 187.238281 234.429688 189.605469 235.398438 C 191.753906 236.273438 193.792969 237.371094 195.894531 238.355469 C 197.492188 239.105469 199.109375 239.761719 200.753906 240.21875 C 196.441406 239.792969 192.257812 238.058594 187.976562 237.433594 Z M 239.242188 222.101562 C 235.730469 225.839844 230.949219 228.125 226.558594 230.660156 C 224.160156 232.050781 221.761719 233.425781 219.363281 234.820312 C 217.167969 236.085938 214.972656 237.402344 212.667969 238.449219 C 210.332031 239.511719 207.824219 240.296875 205.238281 240.296875 C 205.128906 240.328125 204.3125 240.21875 204.015625 240.25 C 202.132812 240.074219 200.300781 239.527344 198.527344 238.824219 C 194.371094 237.152344 190.53125 234.601562 186.125 233.585938 C 181 232.394531 175.667969 233.410156 170.496094 233.632812 C 165.449219 233.835938 160.398438 233.648438 155.382812 233.066406 C 145.222656 231.894531 135.253906 229.109375 125.972656 224.824219 C 124.828125 224.292969 123.699219 223.746094 122.570312 223.179688 L 122.570312 223.164062 C 130.582031 221.445312 137.980469 217.082031 143.34375 210.886719 C 146.179688 207.617188 148.59375 203.785156 149.660156 199.558594 C 150.882812 194.726562 150.320312 189.515625 150.179688 184.589844 C 150.003906 178.628906 149.832031 172.667969 149.660156 166.722656 C 149.660156 166.535156 149.519531 166.441406 149.363281 166.425781 C 152.167969 164.613281 153.832031 160.78125 153.722656 157.574219 C 153.640625 155.351562 152.578125 153.378906 150.726562 152.128906 C 150.632812 152.066406 150.523438 152.003906 150.414062 151.941406 C 151.792969 151.550781 152.734375 150.015625 153.296875 148.75 C 154.191406 146.761719 154.050781 144.605469 153.3125 142.601562 C 155.210938 142.179688 155.273438 139.800781 155.257812 138.222656 C 155.226562 136.265625 154.800781 134.203125 153.03125 133.089844 C 153.125 133.027344 153.21875 132.964844 153.296875 132.886719 C 155.054688 131.496094 155.914062 129.304688 156.074219 127.117188 C 156.214844 125.253906 156.011719 123.125 154.867188 121.59375 C 155.335938 121.703125 155.789062 121.875 156.183594 122.1875 C 156.667969 122.578125 157.011719 123.125 157.484375 123.5625 C 158.25 124.285156 159.222656 124.785156 160.242188 125.003906 C 160.632812 125.082031 161.011719 125.128906 161.402344 125.144531 C 161.386719 125.207031 161.371094 125.269531 161.386719 125.332031 C 161.984375 127.992188 162.609375 130.777344 163.753906 133.246094 C 164.820312 135.5625 166.6875 137.316406 168.535156 139.003906 C 168.835938 139.269531 169.273438 138.832031 168.976562 138.566406 C 167.15625 136.90625 165.324219 135.203125 164.289062 132.949219 C 163.175781 130.527344 162.5625 127.773438 161.984375 125.175781 C 161.984375 125.160156 161.984375 125.144531 161.96875 125.144531 C 163.644531 125.035156 165.242188 124.238281 166.246094 122.828125 C 167.609375 120.90625 167.707031 118.230469 166.46875 116.226562 C 166.246094 115.882812 165.714844 116.195312 165.917969 116.539062 C 167 118.292969 166.953125 120.609375 165.824219 122.34375 C 164.617188 124.191406 162.28125 124.910156 160.195312 124.378906 C 159.082031 124.097656 158.1875 123.5 157.453125 122.640625 C 156.761719 121.84375 156.089844 121.265625 155.039062 121.015625 C 153.972656 120.765625 152.859375 120.765625 151.792969 120.46875 C 150.773438 120.183594 149.785156 119.730469 148.890625 119.167969 C 148.34375 118.824219 147.808594 118.433594 147.339844 118.011719 C 147.308594 117.964844 147.277344 117.933594 147.230469 117.917969 C 144.265625 115.289062 142.683594 111.394531 142.433594 107.453125 C 142.261719 104.855469 142.589844 102.257812 143.25 99.753906 C 143.875 97.363281 144.863281 94.859375 146.933594 93.339844 C 148.984375 91.839844 151.621094 91.449219 154.097656 91.433594 C 156.652344 91.433594 159.554688 91.667969 161.480469 93.511719 C 161.542969 93.574219 161.605469 93.589844 161.667969 93.605469 C 161.699219 94.015625 161.777344 94.40625 161.9375 94.796875 C 162.296875 95.65625 163.019531 96.3125 163.832031 96.765625 C 165.746094 97.816406 168.097656 97.925781 170.199219 97.550781 C 173.191406 97.015625 176.703125 95.375 178.117188 92.589844 C 178.882812 93.574219 179.007812 94.9375 178.914062 96.15625 C 178.804688 97.738281 177.816406 99.035156 176.765625 100.160156 C 174.964844 102.132812 172.300781 103.539062 169.632812 102.664062 C 169.601562 102.460938 169.398438 102.304688 169.179688 102.429688 C 169.117188 102.460938 169.054688 102.507812 168.992188 102.539062 C 168.738281 102.695312 168.820312 103.007812 169.070312 103.117188 C 172.234375 104.449219 175.496094 102.648438 177.535156 100.222656 C 177.878906 99.800781 178.210938 99.394531 178.507812 98.957031 C 179.792969 101.070312 178.101562 103.824219 176.640625 105.417969 C 175.027344 107.171875 172.378906 108.28125 170.261719 106.683594 C 169.929688 106.433594 169.617188 106.980469 169.945312 107.234375 C 171.703125 108.546875 173.820312 108.21875 175.527344 107.140625 C 177.441406 108.5 178.820312 110.660156 178.539062 113.082031 C 178.273438 115.445312 176.234375 117.402344 173.804688 117.058594 C 175.183594 114.929688 174.621094 112.144531 172.410156 110.753906 C 172.0625 110.535156 171.75 111.082031 172.09375 111.300781 C 174.070312 112.535156 174.554688 115.132812 173.097656 116.976562 C 172.957031 117.167969 173.035156 117.386719 173.191406 117.480469 C 173.222656 117.542969 173.285156 117.605469 173.394531 117.621094 C 176.109375 118.167969 178.617188 116.226562 179.101562 113.566406 C 179.589844 110.863281 178.179688 108.375 176.0625 106.777344 C 176.5 106.449219 176.890625 106.089844 177.238281 105.683594 C 178.914062 103.761719 180.53125 100.757812 178.851562 98.378906 C 179.226562 97.660156 179.496094 96.890625 179.542969 96.015625 C 179.621094 94.5625 179.402344 93.042969 178.382812 91.949219 C 178.523438 91.589844 178.617188 91.199219 178.679688 90.808594 C 179.558594 90.871094 180.292969 90.164062 180.875 89.539062 C 181.3125 89.054688 181.707031 88.523438 181.972656 87.929688 C 182.019531 87.992188 182.097656 88.039062 182.207031 88.054688 C 186.09375 88.257812 189.339844 85.175781 189.574219 81.375 C 189.699219 79.308594 189.402344 77.117188 188.054688 75.460938 C 186.800781 73.914062 184.980469 72.941406 183.242188 72.050781 C 182.882812 71.863281 182.566406 72.410156 182.929688 72.597656 C 184.402344 73.363281 185.90625 74.148438 187.097656 75.335938 C 188.589844 76.820312 188.996094 78.761719 188.980469 80.8125 C 188.964844 82.703125 188.335938 84.441406 186.925781 85.738281 C 185.640625 86.910156 183.964844 87.539062 182.222656 87.445312 C 182.207031 87.445312 182.207031 87.445312 182.191406 87.445312 C 182.269531 87.226562 182.332031 87.019531 182.378906 86.785156 C 182.613281 85.597656 182.457031 84.253906 182.238281 83.046875 C 182.003906 81.84375 181.390625 81.015625 180.484375 80.214844 C 180.183594 79.949219 179.730469 80.386719 180.042969 80.65625 C 180.78125 81.296875 181.359375 81.96875 181.597656 82.953125 C 181.800781 83.863281 181.910156 84.894531 181.878906 85.832031 C 181.847656 86.769531 181.546875 87.632812 181.015625 88.414062 C 180.59375 89.039062 179.652344 90.242188 178.773438 90.195312 C 178.773438 90.132812 178.773438 90.070312 178.773438 89.992188 C 178.789062 87.992188 177.910156 86.082031 176.3125 84.878906 C 175.984375 84.644531 175.667969 85.175781 176 85.425781 C 177.644531 86.660156 178.398438 88.820312 178.101562 90.824219 C 177.738281 93.199219 175.828125 94.65625 173.804688 95.703125 C 171.59375 96.828125 169.023438 97.425781 166.546875 97.015625 C 165.433594 96.828125 164.273438 96.453125 163.394531 95.71875 C 162.171875 94.671875 162.203125 93.183594 162.546875 91.746094 C 162.640625 91.355469 162.03125 91.183594 161.9375 91.574219 C 161.828125 92.011719 161.746094 92.464844 161.699219 92.902344 C 159.945312 91.386719 157.59375 90.980469 155.320312 90.871094 C 152.953125 90.761719 150.460938 90.933594 148.265625 91.902344 C 145.898438 92.949219 144.347656 94.90625 143.40625 97.269531 C 142.371094 99.863281 141.851562 102.742188 141.773438 105.527344 C 141.648438 110.328125 143.1875 115.195312 146.824219 118.417969 C 147.714844 121.015625 145.632812 123.925781 143.5625 125.300781 C 141.648438 126.566406 138.058594 127.570312 136.367188 125.425781 C 136.113281 125.113281 135.675781 125.550781 135.925781 125.863281 C 137.777344 128.226562 141.742188 127.242188 143.875 125.832031 C 145.945312 124.457031 148 121.703125 147.621094 119.058594 C 149.472656 120.453125 151.527344 121.1875 153.816406 121.46875 C 153.847656 121.46875 153.894531 121.484375 153.925781 121.484375 C 153.941406 121.5 153.957031 121.515625 153.972656 121.53125 C 155.398438 122.921875 155.601562 125.144531 155.492188 127.019531 C 155.367188 129.023438 154.628906 131.027344 153.0625 132.339844 C 151.496094 133.667969 148.953125 134.03125 146.949219 134.140625 C 144.941406 134.25 142.761719 133.71875 141.679688 131.871094 C 141.476562 131.527344 140.929688 131.839844 141.132812 132.183594 C 142.199219 134.015625 144.28125 134.765625 146.335938 134.78125 C 147.667969 134.78125 149.003906 134.53125 150.289062 134.25 C 151.085938 134.0625 151.855469 133.828125 152.5625 133.417969 C 152.5625 133.511719 152.609375 133.589844 152.703125 133.652344 C 154.191406 134.578125 154.566406 136.328125 154.613281 137.972656 C 154.660156 139.363281 154.800781 141.789062 152.953125 142.070312 C 152.796875 142.085938 152.734375 142.195312 152.734375 142.304688 C 152.640625 142.367188 152.59375 142.476562 152.640625 142.617188 C 153.28125 144.277344 153.546875 146.089844 153 147.796875 C 152.53125 149.265625 151.242188 151.785156 149.363281 151.410156 C 149.316406 151.394531 149.285156 151.410156 149.253906 151.410156 C 147.808594 150.847656 146.210938 150.738281 144.660156 150.957031 C 146.617188 149.171875 147.890625 146.714844 148.25 144.105469 C 148.296875 143.714844 147.699219 143.539062 147.636719 143.933594 C 147.027344 148.375 143.703125 152.097656 139.265625 153.003906 C 136.945312 153.488281 134.359375 153.207031 132.242188 152.066406 C 129.875 150.785156 129.105469 147.984375 129.183594 145.449219 C 129.28125 142.554688 130.34375 139.785156 131.394531 137.128906 C 131.472656 136.90625 131.316406 136.765625 131.144531 136.75 C 131.097656 136.6875 131.019531 136.65625 130.910156 136.65625 C 130.832031 136.65625 130.769531 136.671875 130.722656 136.71875 C 128.058594 135.53125 129.625 132.167969 130.519531 130.351562 C 131.425781 128.507812 132.148438 126.285156 130.722656 124.488281 C 129.5625 123.015625 127.679688 122.40625 126.191406 121.390625 C 124.511719 120.230469 123.304688 118.464844 122.710938 116.539062 C 122.019531 114.320312 122.097656 111.894531 123.101562 109.78125 C 123.117188 109.75 123.132812 109.703125 123.132812 109.671875 C 123.164062 109.609375 123.164062 109.546875 123.132812 109.46875 C 120.859375 103.996094 120.828125 97.707031 123.054688 92.199219 C 124.199219 89.382812 126.128906 87.003906 127.382812 84.253906 C 128.667969 81.40625 128.511719 78.464844 128.761719 75.429688 C 129.265625 69.421875 132.601562 64.074219 136.867188 59.941406 C 139.109375 57.769531 141.617188 55.875 144.21875 54.15625 C 145.472656 53.324219 146.761719 52.527344 148.046875 51.746094 C 149.222656 51.027344 150.351562 50.257812 151.132812 49.101562 C 151.949219 47.898438 152.449219 46.597656 153.5625 45.597656 C 154.613281 44.644531 155.914062 44.019531 157.25 43.578125 C 160.148438 42.640625 163.238281 42.671875 166.214844 42.1875 C 169.101562 41.71875 171.53125 40.480469 174.070312 39.152344 C 175.339844 38.480469 176.640625 37.839844 178.035156 37.464844 C 179.574219 37.039062 181.078125 37.070312 182.628906 37.386719 C 184.027344 37.667969 185.40625 38.074219 186.832031 38.136719 C 187.460938 38.167969 188.101562 38.105469 188.714844 37.949219 C 189.464844 37.746094 190.109375 37.339844 190.828125 37.054688 C 192.398438 36.445312 194.058594 36.851562 195.675781 36.898438 C 197.070312 36.945312 198.464844 36.742188 199.828125 36.445312 C 202.777344 35.804688 205.644531 34.648438 208.6875 34.554688 C 211.742188 34.460938 214.441406 36.023438 217.449219 36.289062 C 220.148438 36.523438 222.46875 35.179688 224.835938 34.117188 C 226.152344 33.519531 227.546875 33.019531 229.003906 33.035156 C 230.445312 33.050781 231.84375 33.566406 233.160156 34.101562 C 234.460938 34.617188 235.746094 35.210938 237.125 35.523438 C 238.582031 35.851562 240.027344 35.695312 241.5 35.773438 C 243.113281 35.851562 244.542969 36.492188 245.386719 37.917969 C 246.125 39.136719 246.203125 40.640625 245.542969 41.90625 C 244.902344 43.125 243.742188 43.957031 242.394531 44.207031 C 242.238281 44.238281 242.175781 44.347656 242.175781 44.457031 C 242.113281 44.644531 242.207031 44.878906 242.457031 44.863281 C 242.566406 44.863281 242.660156 44.863281 242.769531 44.863281 C 242.816406 44.894531 242.863281 44.910156 242.925781 44.910156 C 242.957031 44.910156 242.988281 44.910156 243.003906 44.894531 L 243.050781 44.863281 C 245.640625 44.941406 248.054688 46.207031 249.542969 48.351562 C 250.40625 49.601562 251.171875 51.074219 251.707031 52.496094 C 251.957031 53.183594 252.144531 53.921875 252.113281 54.65625 C 252.066406 55.453125 251.753906 56.1875 251.566406 56.953125 C 251.234375 58.363281 251.707031 59.988281 250.90625 61.257812 C 250.199219 62.382812 248.835938 63.039062 247.535156 63.195312 C 246.1875 63.351562 244.886719 62.992188 243.804688 62.195312 C 242.972656 61.585938 242.113281 61.242188 241.265625 62.039062 C 240.746094 62.523438 240.558594 63.210938 240.277344 63.835938 C 239.902344 64.636719 239.289062 65.152344 238.535156 65.589844 C 237.0625 66.433594 235.417969 67.25 233.675781 67.152344 C 233.613281 67.152344 233.566406 67.167969 233.519531 67.183594 C 233.425781 67.167969 233.332031 67.167969 233.238281 67.152344 C 233.207031 67.152344 233.175781 67.152344 233.144531 67.167969 C 232.171875 66.417969 231.199219 65.652344 230.226562 64.902344 C 229.382812 64.246094 228.519531 63.757812 227.546875 63.539062 C 230.304688 62.539062 232.765625 60.632812 232.078125 57.394531 C 232 57 231.386719 57.15625 231.464844 57.566406 C 231.890625 59.519531 230.636719 61.304688 229.003906 62.257812 C 227.34375 63.242188 225.273438 63.648438 223.359375 63.804688 C 219.988281 64.089844 214.566406 63.648438 213.78125 59.503906 C 213.703125 59.113281 213.109375 59.269531 213.171875 59.675781 C 213.40625 60.914062 214 61.851562 214.847656 62.570312 C 214.832031 62.585938 214.816406 62.601562 214.816406 62.617188 C 213.5 64.417969 211.507812 65.542969 209.375 66.074219 C 208.214844 66.355469 207.039062 66.464844 205.847656 66.480469 C 204.925781 66.480469 203.984375 66.449219 203.121094 66.152344 C 203.371094 65.949219 203.621094 65.714844 203.828125 65.433594 C 204.75 64.183594 205.347656 62.632812 205.785156 61.164062 C 205.894531 60.773438 205.300781 60.617188 205.175781 60.992188 C 204.796875 62.273438 204.296875 63.570312 203.558594 64.699219 C 202.824219 65.839844 201.710938 66.324219 200.457031 66.746094 C 199.09375 67.203125 197.726562 67.136719 196.332031 66.886719 C 195.015625 66.652344 193.621094 66.480469 192.710938 65.402344 C 192.445312 65.089844 192.003906 65.542969 192.273438 65.839844 C 193.230469 66.964844 194.640625 67.203125 196.035156 67.453125 C 196.976562 67.625 197.933594 67.734375 198.871094 67.671875 C 199.765625 71.207031 204.765625 73.003906 208.105469 71.660156 C 205.253906 76.492188 199.265625 78.371094 194.058594 76.164062 C 193.433594 75.898438 192.820312 75.648438 192.148438 75.507812 C 191.550781 75.382812 190.941406 75.304688 190.359375 75.101562 C 189.058594 74.648438 187.960938 73.707031 187.191406 72.582031 C 185.515625 70.09375 185.59375 66.949219 186.394531 64.167969 C 186.503906 63.773438 185.90625 63.617188 185.78125 63.996094 C 184.558594 68.171875 185.265625 73.613281 189.765625 75.539062 C 190.910156 76.023438 192.164062 76.054688 193.308594 76.507812 C 194.515625 76.992188 195.660156 77.449219 196.945312 77.636719 C 199.265625 77.964844 201.679688 77.605469 203.78125 76.539062 C 206.019531 75.414062 207.855469 73.566406 208.984375 71.332031 C 209.015625 71.269531 209.015625 71.222656 209.015625 71.160156 C 209.675781 70.722656 210.207031 70.140625 210.582031 69.375 C 210.757812 69.015625 210.222656 68.703125 210.035156 69.0625 C 208.042969 73.128906 200.628906 71.660156 199.46875 67.59375 C 199.84375 67.53125 200.222656 67.453125 200.613281 67.328125 C 201.253906 67.105469 201.898438 66.871094 202.476562 66.542969 C 203.433594 66.964844 204.484375 67.058594 205.550781 67.074219 C 206.882812 67.089844 208.230469 66.964844 209.535156 66.652344 C 211.835938 66.089844 213.921875 64.855469 215.332031 62.929688 C 217.6875 64.542969 221.371094 64.667969 223.941406 64.371094 C 224.519531 64.308594 225.164062 64.199219 225.824219 64.042969 C 225.855469 64.058594 225.902344 64.058594 225.964844 64.058594 C 227.75 63.902344 228.988281 64.730469 230.335938 65.777344 C 231.589844 66.746094 232.832031 67.71875 234.085938 68.6875 C 235.292969 69.625 236.5 70.566406 237.644531 71.566406 C 238.710938 72.503906 240.074219 73.613281 240.058594 75.164062 C 240.058594 75.242188 240.074219 75.289062 240.105469 75.335938 C 240.105469 75.382812 240.105469 75.429688 240.121094 75.476562 C 240.496094 76.648438 239.871094 77.855469 240.042969 79.058594 C 240.199219 80.089844 240.761719 81 241.265625 81.90625 C 241.9375 83.109375 242.222656 84.222656 242.363281 85.597656 C 242.472656 86.566406 242.675781 87.445312 243.003906 88.320312 C 240.96875 87.539062 238.820312 88.867188 237.753906 90.746094 C 237.722656 90.792969 237.707031 90.839844 237.707031 90.886719 C 237.675781 90.917969 237.660156 90.949219 237.628906 90.996094 C 237.140625 92.167969 236.640625 93.355469 236.484375 94.625 C 236.34375 95.8125 236.546875 96.984375 236.953125 98.113281 C 237.390625 99.332031 238.019531 100.476562 238.488281 101.679688 C 238.945312 102.851562 239.210938 104.074219 239.492188 105.308594 C 239.351562 105.449219 239.429688 105.636719 239.585938 105.730469 C 239.855469 106.933594 240.183594 108.109375 240.667969 109.25 C 241.15625 110.410156 241.765625 111.519531 242.300781 112.644531 C 243.335938 114.804688 244.179688 117.464844 243.113281 119.777344 C 242.503906 121.09375 241.328125 121.765625 240.074219 122.34375 C 238.519531 123.0625 236.953125 123.769531 235.386719 124.472656 C 235.023438 124.644531 235.339844 125.175781 235.699219 125.019531 C 236.734375 124.550781 237.753906 124.082031 238.789062 123.609375 C 239.773438 127.304688 238.582031 131.027344 237.535156 134.5625 C 236.53125 137.988281 236.152344 141.585938 234.851562 144.933594 C 234.554688 145.714844 234.273438 146.480469 234.148438 147.3125 C 234.007812 148.234375 234.039062 149.171875 234.054688 150.109375 C 234.054688 151.707031 233.910156 153.300781 233.503906 154.835938 C 233.097656 156.335938 232.421875 157.777344 231.355469 158.917969 C 230.195312 160.167969 228.628906 160.90625 227.046875 161.46875 C 223.925781 162.578125 220.257812 163.3125 218.453125 166.394531 C 218.453125 166.410156 218.4375 166.425781 218.4375 166.425781 C 218.359375 166.472656 218.28125 166.550781 218.28125 166.675781 C 218.1875 167.710938 218.59375 168.617188 219.082031 169.492188 C 219.675781 170.558594 220.257812 171.605469 220.804688 172.683594 C 221.886719 174.828125 222.8125 177.050781 223.613281 179.316406 C 224.394531 181.570312 225.039062 183.871094 225.539062 186.183594 C 225.933594 188.015625 226.042969 190.046875 226.933594 191.722656 C 227.953125 193.632812 229.789062 193.820312 231.71875 193.539062 C 231.78125 193.601562 231.875 193.632812 232 193.601562 C 234.648438 192.972656 237.4375 192.441406 240.152344 193.035156 C 242.222656 193.488281 243.992188 194.648438 245.558594 196.023438 C 248.351562 198.496094 250.640625 201.65625 254.011719 203.375 C 247.519531 208.195312 244.714844 216.28125 239.242188 222.101562 Z M 239.242188 222.101562 " fill-opacity="1" fill-rule="nonzero"/></g><path fill="#cb6ce6" d="M 182.003906 70.941406 C 179.855469 71.050781 178.867188 73.410156 177.972656 75.039062 C 176.734375 77.292969 175.464844 79.589844 173.632812 81.4375 C 171.96875 83.109375 169.757812 84.472656 167.328125 84.550781 C 165.148438 84.613281 162.9375 83.609375 161.828125 81.703125 C 162.5625 80.578125 162.988281 79.246094 162.890625 77.808594 C 162.859375 77.402344 162.234375 77.402344 162.265625 77.808594 C 162.34375 79.074219 162 80.261719 161.355469 81.28125 C 161.214844 81.328125 161.089844 81.46875 161.105469 81.640625 C 160.117188 82.96875 158.613281 83.925781 156.917969 84.191406 C 155.273438 84.457031 153.5625 84.160156 152.074219 83.4375 C 150.648438 82.75 149.128906 81.5625 148.96875 79.871094 C 148.9375 79.480469 148.3125 79.464844 148.34375 79.871094 C 148.671875 83.53125 153.53125 85.238281 156.667969 84.863281 C 158.550781 84.644531 160.257812 83.65625 161.402344 82.25 C 162.4375 83.863281 164.226562 84.847656 166.121094 85.097656 C 168.332031 85.394531 170.511719 84.628906 172.300781 83.34375 C 174.335938 81.890625 175.84375 79.871094 177.113281 77.761719 C 177.832031 76.570312 178.476562 75.335938 179.148438 74.132812 C 179.761719 73.035156 180.546875 71.628906 181.972656 71.550781 C 182.394531 71.535156 182.394531 70.910156 182.003906 70.941406 Z M 182.003906 70.941406 " fill-opacity="1" fill-rule="nonzero"/><path fill="#cb6ce6" d="M 181.660156 67.84375 C 179.007812 66.152344 175.277344 66.527344 173.113281 68.84375 C 170.589844 71.535156 170.417969 76.226562 166.796875 77.917969 C 166.433594 78.089844 166.75 78.621094 167.109375 78.464844 C 170.246094 77.007812 170.917969 73.347656 172.550781 70.644531 C 173.476562 69.109375 174.777344 68 176.53125 67.578125 C 178.179688 67.1875 179.902344 67.46875 181.328125 68.375 C 181.675781 68.59375 181.988281 68.0625 181.660156 67.84375 Z M 181.660156 67.84375 " fill-opacity="1" fill-rule="nonzero"/><path fill="#cb6ce6" d="M 182.488281 60.867188 C 178.035156 58.472656 172.425781 58.160156 168.066406 60.945312 C 166.152344 62.164062 164.539062 63.917969 163.582031 65.996094 C 163.066406 67.121094 162.828125 68.3125 162.53125 69.515625 C 162.171875 70.957031 161.464844 72.519531 159.835938 72.769531 C 159.441406 72.832031 159.601562 73.425781 160.007812 73.378906 C 162.59375 72.972656 163.003906 70.078125 163.535156 68.03125 C 164.132812 65.746094 165.496094 63.742188 167.34375 62.257812 C 171.578125 58.832031 177.535156 58.910156 182.207031 61.429688 C 182.535156 61.601562 182.851562 61.070312 182.488281 60.867188 Z M 182.488281 60.867188 " fill-opacity="1" fill-rule="nonzero"/><path fill="#cb6ce6" d="M 241.921875 50.398438 C 241.234375 46.410156 237.816406 43.703125 233.894531 43.34375 C 232.625 43.234375 231.324219 43.234375 230.054688 43.3125 C 228.972656 43.390625 227.90625 43.609375 227.03125 44.285156 C 226.714844 44.519531 227.03125 45.066406 227.34375 44.832031 C 228.316406 44.082031 229.492188 43.957031 230.683594 43.925781 C 231.953125 43.890625 233.253906 43.859375 234.523438 44.050781 C 236.71875 44.378906 238.726562 45.550781 240.011719 47.367188 C 242.535156 50.933594 241.640625 57.644531 236.6875 58.597656 C 236.296875 58.675781 236.453125 59.269531 236.859375 59.207031 C 240.746094 58.457031 242.535156 53.96875 241.921875 50.398438 Z M 241.921875 50.398438 " fill-opacity="1" fill-rule="nonzero"/><path fill="#cb6ce6" d="M 229.320312 54.6875 C 228.816406 55.96875 228.253906 57.425781 226.984375 58.128906 C 225.726562 58.816406 224.113281 58.644531 222.75 58.457031 C 221.355469 58.253906 220.164062 57.738281 219.488281 56.421875 C 218.925781 55.296875 218.8125 54 218.796875 52.746094 C 218.796875 52.339844 218.171875 52.339844 218.171875 52.746094 C 218.171875 54.15625 218.328125 55.65625 219.035156 56.921875 C 219.816406 58.300781 221.132812 58.863281 222.65625 59.082031 C 224.207031 59.300781 225.996094 59.457031 227.390625 58.613281 C 228.753906 57.800781 229.367188 56.265625 229.914062 54.859375 C 230.070312 54.46875 229.460938 54.3125 229.320312 54.6875 Z M 229.320312 54.6875 " fill-opacity="1" fill-rule="nonzero"/><path fill="#cb6ce6" d="M 193.808594 223.148438 C 191.660156 222.820312 190.910156 220.382812 190.328125 218.613281 C 189.542969 216.21875 188.839844 213.796875 188.226562 211.355469 C 186.988281 206.394531 186.109375 201.359375 185.59375 196.273438 C 185.546875 195.882812 184.917969 195.867188 184.964844 196.273438 C 185.515625 201.703125 186.472656 207.101562 187.835938 212.386719 C 188.507812 214.96875 189.214844 217.597656 190.171875 220.082031 C 190.78125 221.695312 191.769531 223.460938 193.652344 223.761719 C 194.027344 223.824219 194.199219 223.210938 193.808594 223.148438 Z M 193.808594 223.148438 " fill-opacity="1" fill-rule="nonzero"/><path fill="#cb6ce6" d="M 177.613281 206.628906 C 177.519531 206.238281 176.921875 206.410156 177.003906 206.800781 C 178.210938 212.152344 179.511719 219.035156 174.683594 223.085938 C 174.367188 223.351562 174.824219 223.792969 175.121094 223.527344 C 180.136719 219.316406 178.867188 212.199219 177.613281 206.628906 Z M 177.613281 206.628906 " fill-opacity="1" fill-rule="nonzero"/><path fill="#cb6ce6" d="M 209.5 187.015625 C 208.183594 194.335938 204.390625 201.046875 198.808594 205.972656 C 198.511719 206.238281 198.949219 206.675781 199.25 206.410156 C 204.910156 201.421875 208.765625 194.585938 210.097656 187.171875 C 210.175781 186.792969 209.566406 186.621094 209.5 187.015625 Z M 209.5 187.015625 " fill-opacity="1" fill-rule="nonzero"/><path fill="#cb6ce6" d="M 137.621094 101.585938 C 137.273438 104.574219 134.390625 106.277344 131.601562 106.449219 C 128.824219 106.621094 125.59375 105.183594 125.5 102.039062 C 125.484375 101.632812 124.859375 101.632812 124.875 102.039062 C 124.96875 105.511719 128.464844 107.265625 131.601562 107.078125 C 134.765625 106.871094 137.855469 104.933594 138.246094 101.585938 C 138.292969 101.195312 137.667969 101.195312 137.621094 101.585938 Z M 137.621094 101.585938 " fill-opacity="1" fill-rule="nonzero"/><path fill="#cb6ce6" d="M 135.847656 97.457031 C 134.734375 99.113281 132.664062 100.160156 130.675781 99.722656 C 128.761719 99.316406 127.273438 97.582031 127.226562 95.625 C 127.210938 95.21875 126.582031 95.21875 126.597656 95.625 C 126.660156 97.847656 128.324219 99.847656 130.519531 100.316406 C 132.808594 100.820312 135.128906 99.644531 136.398438 97.753906 C 136.617188 97.441406 136.066406 97.128906 135.847656 97.457031 Z M 135.847656 97.457031 " fill-opacity="1" fill-rule="nonzero"/><path fill="#cb6ce6" d="M 157.21875 94.703125 C 155.101562 93.121094 151.792969 93.921875 149.800781 95.34375 C 147.433594 97.015625 147.042969 99.910156 146.761719 102.601562 C 146.445312 105.636719 146.367188 108.890625 148.015625 111.597656 C 149.800781 114.570312 152.96875 115.195312 156.199219 115.382812 C 156.605469 115.414062 156.605469 114.789062 156.199219 114.757812 C 153.625 114.601562 150.945312 114.273438 149.191406 112.175781 C 147.464844 110.109375 147.121094 107.328125 147.230469 104.730469 C 147.339844 102.289062 147.433594 99.222656 148.890625 97.144531 C 150.273438 95.15625 153.546875 93.921875 155.867188 94.6875 C 159.175781 95.765625 158.863281 100.003906 158.550781 102.726562 C 158.503906 103.132812 159.128906 103.117188 159.175781 102.726562 C 159.476562 99.988281 159.710938 96.5625 157.21875 94.703125 Z M 157.21875 94.703125 " fill-opacity="1" fill-rule="nonzero"/><path fill="#cb6ce6" d="M 164.050781 109.390625 C 163.847656 108.765625 163.566406 108.171875 163.457031 107.515625 C 163.300781 106.636719 163.425781 105.761719 163.722656 104.917969 C 163.863281 104.542969 163.253906 104.371094 163.113281 104.746094 C 162.8125 105.605469 162.6875 106.496094 162.796875 107.390625 C 162.921875 108.390625 163.503906 109.28125 163.613281 110.28125 C 163.691406 110.957031 163.457031 111.675781 162.71875 111.878906 C 162.1875 112.019531 161.621094 111.863281 161.105469 111.738281 C 160.117188 111.488281 159.222656 111.457031 158.203125 111.582031 C 156.214844 111.816406 154.160156 112.050781 153.171875 109.90625 C 152.402344 108.265625 152.324219 106.074219 153.691406 104.714844 C 153.972656 104.433594 153.53125 103.996094 153.25 104.277344 C 151.824219 105.699219 151.746094 107.921875 152.433594 109.71875 C 152.765625 110.597656 153.265625 111.425781 154.082031 111.910156 C 154.976562 112.441406 156.074219 112.441406 157.074219 112.347656 C 157.75 112.285156 158.410156 112.144531 159.082031 112.113281 C 159.835938 112.082031 160.492188 112.238281 161.230469 112.410156 C 162.109375 112.613281 163.175781 112.691406 163.816406 111.941406 C 164.414062 111.207031 164.320312 110.203125 164.050781 109.390625 Z M 164.050781 109.390625 " fill-opacity="1" fill-rule="nonzero"/><path fill="#cb6ce6" d="M 235.652344 136.015625 C 235.667969 136 235.667969 135.984375 235.683594 135.953125 C 236.4375 134.234375 236.921875 131.683594 235.839844 129.992188 C 235.324219 129.179688 234.351562 128.742188 233.488281 128.398438 C 232.46875 127.992188 231.386719 127.742188 230.289062 127.664062 C 228 127.507812 225.902344 128.210938 223.847656 129.148438 C 221.511719 130.210938 219.238281 131.402344 216.964844 132.605469 C 216.777344 132.699219 216.777344 132.886719 216.855469 133.027344 C 216.855469 133.074219 216.871094 133.121094 216.886719 133.152344 C 216.902344 133.277344 216.996094 133.386719 217.183594 133.371094 C 217.246094 133.355469 217.324219 133.355469 217.402344 133.339844 C 220.539062 133.90625 223.628906 134.71875 226.699219 135.546875 C 228.222656 135.953125 229.726562 136.359375 231.246094 136.78125 C 232.71875 137.207031 234.179688 137.707031 235.433594 138.597656 C 235.542969 138.675781 235.636719 138.675781 235.714844 138.613281 C 235.808594 138.582031 235.886719 138.519531 235.917969 138.410156 C 236.167969 137.628906 236.042969 136.875 235.714844 136.125 C 235.683594 136.09375 235.667969 136.046875 235.652344 136.015625 Z M 222.828125 130.304688 C 224.695312 129.414062 226.589844 128.476562 228.675781 128.289062 C 230.605469 128.117188 232.640625 128.523438 234.320312 129.492188 C 236.277344 130.621094 236.011719 133.402344 235.277344 135.296875 C 235.007812 134.8125 234.679688 134.359375 234.289062 134.046875 C 233.566406 133.496094 233.003906 133.96875 232.203125 133.796875 C 231.355469 133.589844 230.761719 132.761719 229.976562 132.417969 C 229.238281 132.089844 228.410156 132.042969 227.609375 132.042969 C 226.464844 132.042969 225.320312 132.089844 224.175781 132.136719 C 222.214844 132.230469 220.257812 132.386719 218.296875 132.621094 C 219.800781 131.808594 221.308594 131.042969 222.828125 130.304688 Z M 227.15625 135.015625 C 224.597656 134.328125 222.042969 133.636719 219.457031 133.089844 C 220.632812 132.964844 221.792969 132.871094 222.96875 132.792969 C 224.835938 132.683594 226.855469 132.433594 228.707031 132.683594 C 229.585938 132.808594 230.195312 133.199219 230.886719 133.71875 C 231.339844 134.0625 231.84375 134.390625 232.4375 134.421875 C 232.863281 134.4375 233.332031 134.234375 233.753906 134.40625 C 234.132812 134.546875 234.414062 135.09375 234.601562 135.40625 C 235.070312 136.140625 235.511719 136.953125 235.402344 137.816406 C 232.988281 136.25 229.882812 135.765625 227.15625 135.015625 Z M 227.15625 135.015625 " fill-opacity="1" fill-rule="nonzero"/><path fill="#cb6ce6" d="M 230.714844 92.496094 C 230.574219 92.121094 229.960938 92.292969 230.101562 92.667969 C 230.996094 94.984375 232.140625 98.347656 229.726562 100.207031 C 229.414062 100.445312 229.726562 100.992188 230.039062 100.757812 C 232.71875 98.675781 231.734375 95.15625 230.714844 92.496094 Z M 230.714844 92.496094 " fill-opacity="1" fill-rule="nonzero"/></svg>